<svg xmlns="http://www.w3.org/2000/svg" id="Capa_2" data-name="Capa 2" viewBox="0 0 201.91 202.84"><defs><style>      .cls-1 {        fill: #ff930a;        stroke-width: 0px;      }    </style></defs><g id="Capa_2-2" data-name="Capa 2"><g><path class="cls-1" d="M89.21,174.23c1.45-1.49,2.64-3.2,3.48-5.12,2.6-5.9,4.27-12.08,5.64-18.36,1.84-8.42,2.19-16.94,2.04-25.52-.51-6.64-.91-13.3-3.27-19.63-1.13-3.02-2.49-5.86-4.99-8.06-3.88-3.42-8.95-3.59-12.94-.33-.46.38-.94.74-1.41,1.11-6,7.78-8.3,16.93-9.47,26.42-1.19,9.64-1.23,19.29,1.12,28.82.54,2.2,1.11,4.39,1.67,6.59.27.61.56,1.21.79,1.83,1.69,4.49,3.92,8.65,7.47,11.96,3.15,2.93,7.21,3.04,9.87.29ZM82.65,166.75c-1.25.06-1.65-1.07-1.94-1.99-1.26-3.99-1.3-8.16-1.59-12.29-.09-1.26-.01-2.53-.01-3.81.43-11.27.65-22.57,3.15-33.65.38-1.69.79-3.39,1.53-4.97.48-1.04,1.03-2.22,2.41-2.03,1.26.17,1.5,1.38,1.71,2.44.67,3.51.34,7.06.26,10.59-.28,11.69-2.19,23.25-2.73,34.92-.14,2.92-.37,5.87-1.21,8.71-.25.87-.4,2-1.59,2.06Z"></path><path class="cls-1" d="M54.06,161.45c.66.43,1.26,1.45,2.16.33-.88-1.34-1.75-2.68-2.64-4.02-3.75-5.64-6.26-11.74-6.59-18.59-.04-.75-.36-1.79.81-1.94,1.32-.16,2.4.47,2.85,1.74.67,1.87,1.38,3.77,1.75,5.71.54,2.84,1.17,5.64,2.02,8.37.84,2.73,1.9,5.39,3.29,7.95.93,1.21,1.77,2.51,2.7,3.73.93,1.21,1.95,2.35,3.26,3.25,2.32,1.61,3.26,1.32,4.18-1.4-.05-1.74,0-3.49-.54-5.17-.22-.7-.34-1.64-.84-2-3.42-2.42-2.99-6.18-3.5-9.6-.48-3.24-.83-6.49-1.87-9.63-.68-2.06-1.48-4.01-3.05-5.56-.33-.32-1.05-.78-.26-1.27,3.44-2.12,4.09-5.68,4.58-9.18,1-7.05,1.12-14.12-.57-21.12-.43-1.77-1.06-3.44-1.89-5.06-1.59-3.06-3.89-4.63-7.53-4.58-3.8.04-7.61-.33-11.42-.23h0c-.52.1-1.04.26-1.56.31-4.22.44-7.43,2.5-9.61,6.09-3.11,5.15-3.53,10.8-2.28,16.48,2.33,10.58,6.32,20.52,12.17,29.68,3.88,6.08,8.27,11.67,14.38,15.69ZM41.05,108.94c1.75-3.17,4.36-3.43,6.68-.64,1.28,1.54,1.97,3.3,2.02,5.51-.55,2.08-.1,4.32.27,6.56.2,1.19,0,2.29-1.05,3.04-1.04.75-2.13.58-3.22.05-4.89-2.35-7.29-9.77-4.69-14.52Z"></path><path class="cls-1" d="M128.72,156.89c.24-1.04.51-2.09.24-3.17-.2-.81-.56-1.54-1.47-1.73-.89-.18-1.38.45-1.74,1.09-1.05,1.86-2.06,3.75-3.05,5.64-.8,1.54-1.63,3.07-2.76,4.4-.76.89-1.73,1.59-2.97,1.3-1.26-.3-1.44-1.52-1.61-2.55-.4-2.59-.3-5.21-.08-7.8.93-10.95,3.56-21.61,5.73-32.35.32-1.58.95-3.07,1.94-4.36,1.42-1.85,3.14-1.67,3.86.56.72,2.21,1.14,4.53,1.59,6.82.39,1.98.84,3.92,1.6,5.79.5,1.23,1.25,2.28,2.75,2.27,1.59,0,2.33-1.14,2.83-2.45.56-1.45.79-3.03.74-4.53-.17-5.27.96-10.36,1.94-15.47.31-1.6.29-3.2-.22-4.76-.37-1.15-1.06-2.07-2.3-2.27-1.24-.21-2.14.44-2.88,1.44-.93,1.26-1.34,3.6-2.74,3.59-1.39-.02-1.81-2.4-2.86-3.58-.45-.49-.88-1.01-1.32-1.51-6.22-4.44-10.58-.48-14.02,5.13-3.47,5.66-4.51,12.09-5.48,18.49-.53,3.53-.96,7.07-1.26,10.62-.3,3.55-.47,7.12-.5,10.69,0,2.37.05,4.74.05,7.1,0,1.44-.02,2.87-.08,4.31-.17,4.21,1.03,8.07,2.81,11.75,2.86,5.9,8.32,6.57,12.67,1.68.27-.3.49-.64.75-.94,2.11-2.36,3.43-5.23,5.1-7.88,1.15-2.35,2.13-4.76,2.71-7.32Z"></path><path class="cls-1" d="M165.33,120.83c.48-.62.64-1.92,1.75-.52,1.77,2.24,2.85,2.29,4.79.24,3.78-3.99,4.57-8.91,4.31-14.15-.14-2.82-2.3-5.73-6.04-4.08-2.45,2.31-3.54,5.48-5.16,8.31-3.47,6.07-6.88,12.19-10.47,18.58-.48-1.13-.12-1.91.09-2.57,1.04-3.27,1.44-6.66,1.97-10.02.43-2.74,1.16-5.35,2.84-7.62.83-1.12.88-2.5,1.14-3.81-.15-.52-.3-1.05-.45-1.57h0,0s0,0,0,0h0s0,.02,0,.02c-.25-.13-.51-.26-.76-.39h0s-.08-.05-.11-.08c0,0,0,0-.01,0-.03-.02-.06-.04-.1-.05-.04-.02-.07-.03-.1-.04-.54-.21-1.1-.06-1.66.06-1.33.03-2.66.06-3.99.09h0c-2.29.05-4.59-.33-6.84.33-2.23.8-2.95,2.21-2.21,5.17.59,2.37.74,4.75.62,7.15-.59,11.97-3.2,23.53-7.25,34.78-1.51,4.21-3.29,8.32-4.96,12.47-.58,1.45-1.72,2.54-2.53,3.85-.28.45-.6.88-.86,1.34-.26.46-.47.95-.52,1.51.02.21.05.39.09.55.05.19.12.35.2.48l.1.14c.21.25.49.36.82.36s.74-.12,1.17-.31c2.12-.98,4.24-1.96,6.34-3,2.04-1.01,3.18-2.79,4-4.83.57-1.42,1.13-2.85,1.69-4.28,1.88-4.64,3.71-9.29,6.86-13.56.88,1.58.29,2.81-.2,4.08-.77,2-1.64,3.95-2.46,5.92-.82,1.98-1.6,3.97-2.18,6.03.25.34.49.46.73.46.04,0,.08,0,.12-.01.04,0,.08-.01.12-.02.05-.02.1-.04.15-.06.28-.12.54-.35.8-.48,7.81-4.26,11.25-11.21,12.23-19.75.82-7.22,1.23-14.59,5.96-20.7Z"></path><path class="cls-1" d="M108.72,44.6c-.1.6-.13,1.21-.13,1.82,0,1.21.11,2.43-.04,3.64-.65,5.28-.99,10.58-1.35,15.89-.06.84-.12,1.69-.17,2.53,0,0,0,.02,0,.02-.29,3-.53,6-.78,9-.12,1.3-.24,2.61-.33,3.91-.16,1.86-.34,3.72-.54,5.57-.08.71-.15,1.42-.24,2.13-.25,1.32-.5,2.64-.44,4,.1,1.1.8,1.69,1.81,1.84,1.65.25,3.3.5,4.96.56,2.22.09,3-.86,2.68-3.09-.25-1.71-1.09-3.34-.97-5.1.32-4.59.71-9.18,1.11-13.76.06-.64.05-1.5.97-1.51.96-.01,1.39.72,1.47,1.6.25,2.6.05,5.2-.12,7.8-.28,4.19-.69,8.4.47,12.54.18.64.35,1.3.66,1.86.31.56.76,1.04,1.47,1.33.66.27,1.31.24,1.97.02.26-.16.52-.33.78-.5,2.28-3.31,3.56-6.72,1.28-10.6-.69-1.17-.42-2.46-.25-3.73.47-3.45.98-6.89-.12-10.33-.65-2.04-.33-4.36.43-6.37,1.25-3.32,1.27-6.8.99-10.29-.09-1.2-.21-2.39-.31-3.59-.26-.83-.55-1.65-.78-2.48-1.42-5.25-3.4-6.97-8.78-7.65-.66-.08-1.32-.23-1.98-.29-3.23-.29-3.58.01-3.73,3.21ZM115.14,56.7h.12c0-1.6-.03-3.2.02-4.79.02-.68-.25-1.69.76-1.79.93-.08,1.32.78,1.51,1.59.64,2.7.55,5.41.23,8.14-.09.79-.24,1.58-.46,2.35-.17.59-.56,1.12-1.28,1.05-.77-.08-.89-.74-.89-1.35-.02-1.73,0-3.46,0-5.19Z"></path><path class="cls-1" d="M71.44,51.81c-1.15,3.56-2.14,7.16-2.87,10.8-.18.91-.35,1.82-.49,2.74-.05.29-.09.58-.13.87,0,.05-.02.1-.02.15-.05.35-.1.7-.14,1.05-.04.28-.07.57-.1.85-.03.29-.06.57-.09.85-.03.28-.06.56-.08.85-.03.31-.05.62-.08.93-.03.47-.06.93-.08,1.4-.02.47-.04.94-.05,1.41-.11,4.71.26,9.33,2.91,13.45.51.37,1.01.79,1.53,1.15.74.51,1.54.9,2.54.88,2.78-.31,4.37-2.22,5.59-4.41,2.27-4.07,3.43-8.53,4.28-13.09,1.26-6.71,2.14-13.47,2.09-20.3-.02-2.47-.24-4.96-.95-7.34-.28-.94-.6-1.87-1.11-2.64l-.95-1.03-1.38-.68c-.51,0-1,.06-1.45.17-.15.04-.3.08-.44.12-.14.05-.29.1-.42.16-.14.06-.27.12-.41.19-.13.07-.26.14-.39.21-.13.08-.25.16-.37.24-.97.67-1.79,1.59-2.55,2.59-1.94,2.55-3.12,5.52-4.39,8.42ZM78.23,48.77c.1-.32.2-.64.35-.94.27-.54.53-1.17,1.3-.98.64.16.67.76.72,1.3.18,1.75-.19,3.47-.43,5.18-1.15,7.79-2.36,15.58-3.62,23.35-.22,1.38-.72,2.71-1.16,4.04-.18.54-.38,1.26-1.17,1.14-.73-.1-.86-.79-.97-1.37-.13-.72-.15-1.46-.22-2.27.98-9.9,2.18-19.84,5.21-29.46Z"></path><path class="cls-1" d="M96.77,52.62c.23-.97.54-1.93.89-2.86.19-.49.54-.97,1.16-.96.64,0,.96.51,1.08,1.03.33,1.36.57,2.74.84,4.11.38,1.89.68,3.81,1.19,5.67.22.78.56,1.28.97,1.28.33,0,.7-.3,1.1-1,.36-2.85.78-5.68,1.08-8.54.3-2.92.72-5.83.39-8.78-.09-.74-.28-1.52-1.12-1.73-.89-.22-1.28.5-1.67,1.14q-1.11,1.81-2.36-.05c-1.95-2.91-4.22-3-6.42-.25-1.28,1.59-1.87,3.53-2.82,5.29-2.49,9.18-3.84,18.51-3.54,28.04.13,4.28.92,8.47,2.29,12.54.54,1.45,1.37,2.75,2.34,3.94,1.92,2.36,4.68,2.34,6.31-.23,2.97-4.67,4.52-9.76,3.87-15.38-.32-.62-.33-1.62-1.28-1.55-.88.07-.96,1.01-1.19,1.68-.61,1.69-1.13,3.42-1.79,5.1-.36.91-.76,2.01-2.04,1.85-1.15-.14-1.3-1.22-1.48-2.13-.74-3.77-.52-7.59-.18-11.36.51-5.64,1.07-11.29,2.39-16.82Z"></path><path class="cls-1" d="M146.59,56.17c.5-.19.9.16,1.25.46,1.37,1.19,1.89,2.88,2.64,4.45.45.97.89,1.94,1.42,2.87.28.48.57,1.21,1.32.95.62-.21.45-.9.51-1.41.21-2.14-.47-4.09-1.25-6.02-.56-.7-.95-1.46-1.27-2.26s-.58-1.63-.85-2.45c-.4-1.19-1.02-2.18-2.26-2.61-2.64-.92-5.28-1.84-7.94-2.72-.86-.29-1.75-.39-2.12.78,1.47,4.99,2.59,10.03,2.99,15.26.47,6.16-.13,12.25-.75,18.34-.45,4.38-.89,8.75-1.32,13.13-.02.24-.04.49-.04.72,0,.62.1,1.23.43,1.8.82.43,1.59.98,2.55.98.04,0,.08,0,.13,0,.57.15,1.12.24,1.66.24.12,0,.25,0,.37-.02.12,0,.25-.02.37-.04.37-.06.72-.18,1.06-.35.23-.11.45-.26.67-.43.11-.08.22-.18.32-.28,1.36-3.28,1.54-6.75,1.61-10.23.04-2.54.02-5.08.06-7.62.01-.59.02-1.42.63-1.56.71-.17.84.7,1.07,1.21.59,1.32,1.11,2.66,1.72,4.13,2.74-4.18,2.78-12.87.21-16.66-.37-.54-.7-1.36-1.41-1.28-.92.11-.48,1.07-.67,1.66-.14.44-.22.91-.42,1.32-.18.37-.51.66-.97.55-.36-.09-.52-.42-.53-.77-.11-3.69-1.03-7.27-1.6-10.9-.07-.45-.16-1,.41-1.21Z"></path><path class="cls-1" d="M156.5,53.82c.19,6.87-.29,13.75.43,20.61.77,7.33,2.1,14.53,4.61,21.47.23.62.45,1.26,1.01,1.7.74.23,1.45.36,2.14.36.14,0,.29,0,.43-.02.14-.01.29-.03.43-.05.28-.04.56-.12.84-.21.14-.04.27-.1.41-.16.58-.26,1.14-.63,1.69-1.14.06-.06.13-.12.19-.19.06-.06.13-.13.19-.2.32-.34.64-.72.94-1.16.09-.12.18-.25.27-.39.12-.19.25-.38.36-.58.18-.3.36-.62.53-.96,1.88-3.62,2.51-7.68,2.31-11.7-.5-9.71-4.51-17.93-11.47-24.65-1.42-1.37-3.11-2.67-5.31-2.75ZM165.25,90.3c-2.94-10.04-1.24-20.49-4.55-30.2,7.23,5.82,7.56,23.27,4.55,30.2Z"></path><path class="cls-1" d="M68.6,46.96c-1.28-3.4-1.98-3.71-5.48-2.46-1.44.51-2.88,1.01-4.31,1.54-1.57.58-2.41,1.73-2.74,3.38-.27,1.35-.15,2.82-1.06,4.01-.69,2.65-1.59,5.23-2.52,7.81-.93,2.57-1.89,5.13-2.72,7.74-1.44,4.51-3.01,8.98-2.85,13.85.08,2.48,1.39,4.12,3.2,5.48,1.02.76,1.94.45,2.34-.79.27-.82.37-1.69.51-2.55.43-2.7.59-5.45,1.47-8.06.81-2.38,1.84-4.78,4.33-5.71,2.84-1.06,4.75-2.92,5.95-5.57,2.68-5.92,3.97-12.15,3.88-18.66ZM59.73,63.6c-.35.75-.78,1.82-1.83,1.4-.93-.37-.3-1.32-.13-1.95,1.03-3.85,2.11-7.69,3.23-11.51.19-.64.32-1.67,1.3-1.47.95.19.64,1.16.74,2.08-.88,3.73-1.59,7.73-3.31,11.44Z"></path><path class="cls-1" d="M129.68,97.54c.33,0,.65,0,.98,0,2.71.05,2.97.04,3.57-2.1.06-.23.13-.47.21-.75.06-9.03,1.04-18.03.9-27.07-.08-5.55-.14-11.1-.43-16.64.21-1.08.33-1.94.33-2.65,0-.33-.03-.63-.09-.9-.02-.11-.05-.21-.08-.31-.03-.07-.06-.14-.09-.21-.03-.07-.07-.13-.1-.2-.02-.04-.05-.08-.08-.12-.03-.04-.06-.08-.09-.12-.03-.04-.06-.08-.1-.11-.04-.04-.07-.07-.11-.11-.07-.07-.15-.14-.24-.21-.09-.06-.18-.12-.28-.19-.1-.06-.21-.12-.32-.17-.12-.06-.24-.11-.37-.16-.24-.1-.51-.19-.8-.28-.1-.03-.2-.06-.3-.09-.16-.05-.34-.09-.52-.14-.09-.02-.19-.05-.28-.07-.19-.04-.39-.09-.6-.14-.33-.07-.66-.13-.97-.23-1.43-.44-2.19.06-2.23,1.58,1.77,13.57,1.96,27.14.06,40.72-.44,3.17-2.26,6.05-1.94,9.37h0c.25.31.5.62.75.93,0,0,0,0,0,0,1.04.45,2.14.36,3.23.33Z"></path><polygon class="cls-1" points="104.74 67.04 104.74 67.05 104.74 67.04 104.74 67.04"></polygon><path class="cls-1" d="M29.64,91.52c.13,0,.27-.02.4-.02.78-.45,1.36-1.02,1.79-1.7.43-.68.69-1.46.82-2.35.27-1.78.68-3.54,1.08-5.3.22-.98.52-1.96,1.15-2.76.72-.93,1.63-1.84,2.87-1.28,1.15.51.8,1.75.62,2.69-.37,1.92-1.38,3.6-2.12,5.39-.47,1.13-1.69,2.52-.95,3.48.91,1.17,2.64.32,3.96.08,2.86-.53,4.98-2.6,4.84-5.07-.25-4.47,1.17-8.57,2.3-12.75,1.85-6.83,4.28-13.51,5.41-20.53-.06-.28-.12-.53-.2-.75-.49-1.45-1.42-1.67-2.94-.62-.93.64-1.83,1.4-2.49,2.29-2.17,2.96-3.96,6.17-5.58,9.45-4.37,8.85-8.61,17.77-12.96,26.63-.46.93-.79,1.59-.94,2.05-.37,1.15.35,1.13,2.93,1.05ZM38.87,71.05s.02-.03.02-.05c1.89-3.81,2.26-8.24,4.86-11.74.22-.29.3-.73.94-.76.02,0,.05,0,.08,0-.22,2.88-1.09,5.57-1.94,8.27-.36,1.14-.86,2.24-1.28,3.37-.33.89-.96,1.42-1.85,1.66-.65.18-1.22.05-.83-.74Z"></path><path class="cls-1" d="M15.9,129.93c-2.16-1.88-3.69-1.72-5.31.68-1.44,2.15-3.14,3.97-5.33,5.35-1.15.72-1.79,1.79-1.69,3.11-.05,1.92.95,3.11,2.59,3.43,1.56.31,2.44,1.26,3.33,2.35.8.99,1.37,2.71,3.05,1.82,1.89-1,.53-2.39.06-3.63-.86-2.29-.51-2.9,1.96-3.44.78-.17,1.56-.35,2.36-.48,1.81-.3,2.46-1.39,2.24-3.15-.3-2.44-1.44-4.44-3.26-6.03ZM16,137.9c-.8-.43-1.15-.99-.26-1.66,1.08-.82,1.35-1.82.65-2.95-.7-1.13-1.66-1.71-3.03-.99-.41.22-.93.35-1.24-.17-.32-.54-.37-1.14-.07-1.71.31-.58.8-.92,1.47-.79.95.18,1.71.72,2.37,1.4,1.43,1.5,2.1,3.36,2.49,5.11,0,1.75-1.09,2.47-2.37,1.77Z"></path><path class="cls-1" d="M186.09,60.16q3.32-2.74,5.5.95c.49.83,1.11,1.65,2.21,1.32,1.23-.37,1.23-1.38,1.04-2.46-.33-1.89-.59-3.67.35-5.62,1.06-2.23-.64-4.42-3.15-4.58-1.01-.06-2,.06-2.96.36-1.76.55-3.55.55-5.35.33-3.66-.44-4.26.06-4.38,3.7-.17,1.87.34,3.57,1.34,5.13,1.56,2.45,3.18,2.71,5.41.87ZM180.87,51.57c.84-.77,1.58-.43,2.2.34.66.81.32,1.26-.54,1.64-1.23.54-1.23,1.63-1.01,2.72.23,1.14.99,1.66,2.16,1.61.59-.03,1.28-.13,1.34.76.04.64-.2,1.18-.73,1.55-.66.47-1.29.26-1.81-.23-1.7-1.57-2.38-3.62-2.61-5.71,0-1.11.25-2,.99-2.67Z"></path><path class="cls-1" d="M155.32,126.41s-.03,0-.04-.02c-.06.22.28.02.04.02Z"></path><path class="cls-1" d="M156.37,123.99c-.36.75-.72,1.5-1.05,2.26-.03.07-.04.12-.03.14,0-.02.02-.05.04-.09.46-.7.8-1.48,1.05-2.31Z"></path><path class="cls-1" d="M193.37,127.31c1.47-.04,2.94-.04,4.41-.09.97-.04,1.48-.68,1.51-1.56.04-1.11-.88-.7-1.47-.8-3.03-.5-6.02-1.11-8.65-2.82-.38-.25-.71-.47-.99-.02-.38.63-.75,1.34-.51,2.07.17.54.62.15.99.09,2.59-.42,4.76.81,7.02,1.77-1.07.7-2.21.41-3.3.52-.89.09-2.19-.38-2.51.66-.35,1.15,1.04,1.52,1.76,2.14.73.63,1.81.87,2.45,2.57-2.84-1.26-5.68-.98-7.6-3.34-.71.95-.99,1.9-.83,3.02.9.07,1.52-.87,2.36-.39,1.84,1.06,3.99,1.03,5.93,1.77.62.24,1.3.36,1.56,1.1.14.4.02,1.09.75.88.5-.14.56-.71.67-1.16.24-1.02-.12-1.84-.95-2.46-1.01-.76-2.03-1.52-3.05-2.27-.42-.31-1.09-.52-.93-1.15.17-.64.86-.52,1.37-.54Z"></path><path class="cls-1" d="M147.06,190.89c-2.05-1.81-2.43-4.53-3.74-6.73-.4-.66-.75-1.39-.2-2.25.44-.69.03-1.05-.69-.8-.68.24-1.34.61-1.95,1-.39.25-.49.61.04.91,2.85,1.62,2.7,4.92,4.46,7.16-.28.22-.57.44-.85.66-1.59-1.69-3.12-3.42-4.78-5.03-.8-.77-1.55-2.54-2.73-1.75-1.13.75.15,2.18.52,3.23.83,2.34,2.7,4.34,2.18,7.1-.07.38.25.61.64.58.9-.07,1.71-.38,2.26-1.12.26-.35-.03-.58-.33-.78-2.18-1.48-2.19-4.1-3.35-6.11,1.94,1.11,3.46,2.59,4.82,4.25.87,1.06,1.98,1.34,3.23.97.64-.19,1.18-.66.46-1.3Z"></path><path class="cls-1" d="M101.76,191.37c-2.94-.83-5.54-.78-8.1-.52-1.45.14-1.39,1.44-1.19,2.52.11.61.72.8.91.11.59-2.1,2.22-1.51,3.61-1.53.84-.02,1.65.15,1.9,1.12.28,1.07.32,2.16-.46,3.04-.59.66-1.28.61-1.89-.1-.31-.36-.12-1.3-.91-1.04-.67.23-.51,1.03-.5,1.61.01.76-.27,1.59.42,2.48.55-.74,1-1.89,2.11-1.22.97.59.66,1.67.56,2.57-.09.79-.7,1.04-1.44,1.13-2.06.26-3.11-.4-4.13-2.82-1.26,2.46-.8,3.44,1.56,3.7,1.53.16,3.06.29,4.59.33.7.02,1.65.34,2.05-.37.41-.74-.76-.72-1-1.25-.24-.52-.17-1.03-.14-1.57.08-1.33.21-2.67.19-4-.02-1.56.07-3.04,1.85-4.19Z"></path><path class="cls-1" d="M10.47,102.45c.11.31.27.66.69.54.39-.11.4-.51.41-.83.09-2,.53-3.97.38-5.99-.16-2.18-1.14-2.72-3.56-1.64,2.64.25,2.47,2.01,2.39,3.72-.04.82-.08,1.7-1.06,1.94-1.1.27-2.32.45-3.24-.39-.68-.63-.61-1.44.2-2.05.33-.25.99-.03,1.05-.93-1.36-.25-2.68-.76-4.11-.04.1.25.12.41.21.48.66.54,1.64.97,1.03,2.05-.49.87-1.38.59-2.17.45-1.01-.18-1.74-.56-1.65-1.82.12-1.63.03-3.32,2.37-3.39.27,0,.46-.26.35-.59-2.31-.8-3.56-.44-3.68,1.3-.17,2.38-.04,4.78-.04,7.16.14.12.28.25.42.37.49-1.65,1.7-1.62,2.92-1.6,1.6.02,3.21.02,4.81.04.97.01,1.88.13,2.29,1.23Z"></path><path class="cls-1" d="M47.93,22.03c1.05-.07,1.85-.73,2.77-1.11,1.09-.45,2.1-.43,2.87.61.82,1.11.53,2.14-.27,3.1-1.21,1.45-2.64,1.52-4.59.25-.38-.25-.78-.75-1.23-.41-.61.47-.04.95.21,1.38.33.58.67,1.16,1.06,1.7.29.41.78.72,1.18.27.68-.75,1.7-.76,2.46-1.24,1.46-.93,3.02-1.86,2.95-3.81.03-2.34-1.69-3.68-3.87-3.22-1.32.28-2.39,1.22-3.77,1.3-.74.04-1.5.04-1.95-.71-.48-.8-.21-1.6.28-2.24,1.04-1.36,2.41-1.54,3.94-.87.46.2,1.04.69,1.41.06.39-.66-.15-1.27-.49-1.83-.35-.58-.82-1.24-1.59-.78-1.25.77-2.75,1.09-3.83,2.14-1.18,1.15-1.44,2.55-.78,4.04.63,1.43,1.93,1.46,3.25,1.37Z"></path><path class="cls-1" d="M112.39,200.6c-.12-.31-.31-.61-.34-.93-.18-2.06-.34-4.11-.46-6.17-.03-.45.1-.92.21-1.37.13-.56,1.22-.8.75-1.44-.49-.68-1.36-.24-2.06-.11-.5.09-1.08-.02-1.46.47-.04.56.51.55.75.83.91,1.11.69,2.39.42,3.61-.15.68-.81.82-1.45.8-1.33-.04-2.03-.83-2.41-2.02-.26-.83-.55-1.65-.83-2.46-.34-.98-1.07-1.13-1.93-.82-.53.19-.8.84-.27,1.04,1.56.58,1.31,2.22,2.12,3.21.76.91.65,1.69-.11,2.65-1.53,1.93-.49,4.21,1.98,4.45,1.38.13,2.8.04,4.2,0,.64-.02,1.5.19,1.83-.47.41-.79-.75-.74-.95-1.27ZM108.83,201.55c-1.49-.05-2.8-.51-2.76-2.19.04-1.82,1.63-1.8,2.95-1.92,1.92-.18,1.92,1.28,1.99,2.51.08,1.52-1.1,1.57-2.18,1.61Z"></path><path class="cls-1" d="M79.7,12.77c.24,2.25-.04,2.29,2.66,1.22-1.61-1.19-1.81-2.69-1.63-4.27.09-.75.5-1.67,1.41-1.06,1.14.76,2.26,1.74,2.72,3.11.62,1.89,2.09,2.18,3.76.5-2.88-.35-3.88-2.88-5.6-4.57-.43-.42-.48-.96-.2-1.48.66-1.24,1.44-2.4,2.38-3.44.41-.46,1.69-.23,1.33-1.11-.34-.83-1.31-.12-1.99-.08-.95.06-1.59.38-1.64,1.57-.06,1.38-1.01,2.45-1.73,3.55-.56.85-1.1.6-1.33-.33-.23-.91-.49-1.81-.03-2.74.2-.4.2-.87-.33-.94-.73-.1-1.49-.03-2.09.45-.33.26-.04.56.16.84,1.8,2.66,1.85,5.79,2.16,8.79Z"></path><path class="cls-1" d="M134.61,18.19c.07.75.89.92,1.52,1.1.56.16,1.03.66,2,.42-.19-.42-.34-.7-.46-1-.59-1.47.24-2.57,1-3.65.37-.52.95-.4,1.46-.14,1.21.63,1.65,1.68,1.56,2.99-.02.27,0,.54-.06.8-.13.65-.3,1.3-.45,1.95-.13.6.04,1.07.62,1.32.42.19.91.45,1.3.04.47-.49-.17-.8-.31-1.21-.59-1.74.39-4.45,1.95-5.44,1.59-1.01,1.86-3.03.45-4.48-1.67-1.71-3.98-2.16-6.22-2.96.89,1.52.45,2.78-.19,4.05-.6,1.19-1.1,2.43-1.69,3.63-.32.65-.62,1.33-1.26,1.77-.41.29-1.3.11-1.23.79ZM141.71,10.25c1.36-.11,3.11,1.36,3.11,2.57,0,1.2-.58,1.86-1.95,1.81-1.08-.38-2.91.02-3.04-1.74-.07-1.02.27-2.51,1.88-2.64Z"></path><path class="cls-1" d="M187.53,148.63c-1.52-.91-2.83-.37-3.96.78-.74.76-1.38,1.63-2.16,2.36-.79.73-1.7.62-2.59.06-.87-.56-1.01-1.34-.82-2.27.38-1.9,1.77-3,3.89-2.9.37-.08,1.37.49,1.33-.3-.05-1.11-1.43-1.21-2.23-1.76-.44-.3-1.09-.7-1.35.01-.58,1.6-2.13,2.55-2.6,4.24-.49,1.73-.09,3.46,1.25,4.23,1.55.89,3.21.53,4.46-.99.55-.67,1-1.43,1.59-2.06.7-.74,1.61-1.06,2.52-.4.85.62,1.05,1.53.7,2.51-.54,1.47-1.59,2.25-3.17,2.37-.48.04-1.3-.07-1.23.66.08.82,1.03.95,1.63,1.35.56.37,1.16.4,1.59-.23.74-1.11,1.54-2.19,2.15-3.37.76-1.49.25-3.56-1-4.31Z"></path><path class="cls-1" d="M66.19,7.67c1.04,0,1.32.78,1.59,1.54.53,1.5,1.02,3.03,1.55,4.54.49,1.38.7,2.7-.68,3.96,2.47-.37,4.8-.92,6.85-2.09,1.77-1.01,1.87-3.42.27-4.77-1.01-.84-1.49-1.71-1.55-3.03-.09-1.85-1.17-2.7-3.07-2.61-1.76.08-3.34.86-5,1.34-.31.09-.68.25-.68.64,0,.46.4.47.73.47ZM75.68,13c.1,1.37-1.66,2.86-3.36,2.81-2.02-.07-1.95-1.87-2.1-3.11-.22-1.77,1.52-1.41,2.49-1.81,1.41.19,2.83.32,2.96,2.11ZM71.3,6.19c1.09-.1,1.86.54,2,1.56,0,1.23-1.57,2.62-2.78,2.55-1.4-.08-1.71-1.21-1.75-2.25-.07-1.67,1.39-1.76,2.53-1.86Z"></path><path class="cls-1" d="M89.89,2.03c.83.51.74,1.34.8,2.13.14,1.73.23,3.46.5,5.17.35,2.16,1.78,3.21,3.95,3.11,2.01-.09,3.31-1.31,3.51-3.39.14-1.53.06-3.06-.19-4.59-.16-1.03-.41-2.12.35-3.07.27-.34.91-.69.25-1.1-.72-.45-1.55-.22-2.31.1-.42.18-.64.53-.36.96,1.2,1.85.64,4.03,1.15,5.87-.06.81-.03,1.49-.19,2.13-.33,1.28-1.29,1.82-2.54,1.83-1.2.01-2.29-.56-2.35-1.74-.14-2.6-1.38-5.23.08-7.82.3-.52.2-.96-.38-1.09-.94-.2-1.92-.13-2.68.47-.59.46,0,.79.39,1.03Z"></path><path class="cls-1" d="M87.39,190.15c-1.69-1.05-4.88-.68-5.31.68-.32,1.01-.37,2.12-1.44,2.73-.37.21-.36.59.01.79.86.47,1.85.6,2.7.23.82-.35-.1-.86-.15-1.32-.15-1.38.51-2.17,1.8-2.43,1.5-.31,2.96.86,3.24,2.56.26,1.63-.16,3.18-.71,4.7-.49,1.37-1.29,2.29-2.9,2.28-1.51-.01-2.1-.9-2.37-2.21-.09-.44-.16-1.03-.86-.73-.64.27-.99,2.66-.49,3.12,1.95,1.79,6.04,1.18,7.48-1.12.88-1.41,1.11-2.98,1.11-4.61.02-2.48-.51-3.65-2.1-4.64Z"></path><path class="cls-1" d="M128.54,16.62c1.86.32,3.43-.79,4.31-2.8.99-2.25.57-5.12,2.93-6.79.25-.17.1-.52-.16-.66-.64-.35-1.32-.77-2.07-.51-.69.24-.4.89-.35,1.88-.24,1.78-.84,3.97-1.73,6.05-.47,1.08-1.45,1.85-2.73,1.63-1.08-.19-2.22-.82-2.18-2.02.09-2.74.69-5.39,2.51-7.59.34-.41,1.35-.6.63-1.29-.72-.7-1.83-.99-2.8-.73-.89.24-.18.84.02,1.26.33.67.12,1.3-.08,1.94-.51,1.66-1.13,3.29-1.48,4.99-.53,2.5.72,4.22,3.17,4.65Z"></path><path class="cls-1" d="M27.07,49.6c-.16.27-.17.67.21.86.28.15.52-.03.68-.25,1.06-1.4,2.27-2.71,2.84-4.61-1.96,1.54-3.36.4-4.77-.65-1.23-.91-2.46-1.83-3.69-2.75-.63-.47-1.17-.98-.58-1.81.51-.72,1.17-1.11,2.06-.67.6.29,1.17.65,1.77.92.39.17,1.03.09.79-.39-.54-1.1-1.64-1.72-2.69-2.27-.76-.4-1.4.09-1.89.72-1.14,1.48-2.16,3.07-3.45,4.41-1.38,1.45-1.04,2.41.48,3.3.72.42,1.61,1.59,2.16.98.76-.84-.61-1.35-1.15-1.9-.64-.66-.99-1.25-.31-2.07.62-.76,1.34-.82,2.11-.28,1.3.93,2.57,1.91,3.89,2.82,1.31.9,2.68,1.72,1.52,3.65Z"></path><path class="cls-1" d="M113.72,5.85c.49.06.56-.47.66-.85.06-.26.1-.53.17-.78.23-.85.41-1.78,1.64-1.57,1.19.2,1.5,1.06,1.36,2.08-.21,1.59-.54,3.16-.78,4.74-.22,1.4-.5,2.68-2.35,2.63-.33,0-.73.09-.74.5,0,.19.24.51.43.57,1.73.48,3.48.87,5.35.47-.98-.77-2.03-1.35-1.79-2.75.36-2.1.72-4.21,1.09-6.31.13-.74.51-1.26,1.34-1.2.84.06,1.32.52,1.46,1.38.13.84-.15,1.74.38,2.75,2.17-2.84,1.53-4.63-1.69-5.19-1.65-.29-3.29-.58-4.93-.89-.95-.18-1.57.09-1.72,1.12-.1.73-.27,1.44-.35,2.18-.04.43-.19,1.05.47,1.13Z"></path><path class="cls-1" d="M75.08,186.97c-2.06-.63-4.11.33-4.84,2.39-.58,1.64-1.03,3.32-1.53,4.98-.19.66-.41,1.27-1.13,1.55-.39.15-1.17.28-.76.85.56.77,1.56,1.05,2.51,1.01.66-.03.41-.64.43-1.1.1-2.63.67-5.16,2.01-7.45.6-1.02,1.58-1.5,2.74-1.13,1.17.36,2.14,1.24,1.99,2.47-.32,2.57-.75,5.25-2.68,7.16-1.11,1.1-.61,1.4.39,1.72.68.21,1.38.56,2.55.13-1.25-1.07-.93-2.14-.51-3.33.54-1.5.91-3.07,1.29-4.63.51-2.11-.54-4.04-2.46-4.63Z"></path><path class="cls-1" d="M194.62,137.84c-1.68.62-2.94-.5-4.34-1.02-1.37-.51-2.59-1.42-4.12-1.46-2.02-.09-3.04,1.11-3.64,2.83-.59,1.67-.11,3.13,1.35,4.01,1.71,1.02,3.56,1.8,5.37,2.65.61.29,1.24.48,1.52,1.19.15.36,0,1.19.75.83.78-.38.91-1.28,1-2.07.06-.49-.25-.67-.75-.68-2.57-.06-4.58-1.64-6.79-2.61-1.38-.61-1.87-1.94-1.23-3.38.7-1.56,2.12-1.99,3.51-1.29,2.16,1.08,4.84,1.35,6.23,3.72.2.33.55.5.83.23.7-.67,1.06-1.54,1.02-2.51-.01-.39-.37-.57-.73-.43Z"></path><path class="cls-1" d="M54.95,13.18c.83.76,1.14,1.81,1.48,2.8.39,1.15.96,2.21,1.61,3.21.79,1.23,1.91,2.06,3.48,2,2.8-.1,4.43-2.57,3.48-5.22-.87-2.45-3.13-4.43-2.5-7.4.06-.29-.29-.45-.57-.4-.74.12-1.4.46-1.93.98-.29.28-.13.59.19.83,2.1,1.59,2.47,4.19,3.59,6.34.66,1.26.05,2.53-1.11,3.31-.99.66-2.2.64-2.92-.32-1.54-2.08-2.78-4.35-3.18-6.97.02-.61.59-1.58-.5-1.56-.82.01-1.78.47-2.16,1.26-.4.82.66.79,1.05,1.15Z"></path><path class="cls-1" d="M48.5,174.52c-1.56-2.76-4.81-4.24-7.55-3.44-2.42.71-4.53,3.79-4.45,6.47.07,2.33,2.51,4.87,5.19,5.43-.33-2.47,3.96-7.8,6.81-8.46ZM42.06,178.8c-.7.78-1.26,2.15-2.68,1.5-1.27-.58-1.79-1.73-1.68-2.97.02-3.27,3.19-6.03,5.96-5.35,1.85.45,2.35,1.69,1.22,3.22-.9,1.24-1.81,2.47-2.82,3.61Z"></path><path class="cls-1" d="M85.92,25.27c-1.17-.13-1.54,1.19-1.85,2.07-1.01,2.81-1.91,5.66-2.8,8.51-.26.83-.37,1.73.59,2.29,1.29-1.53,2.55-3.07,3.52-4.76.97-1.69,1.64-3.54,1.75-5.66-.29-.89.02-2.31-1.21-2.45Z"></path><path class="cls-1" d="M39.53,168.11c.3.21.77.16.72-.3-.1-.87-.86-1.32-1.48-1.8-.48-.37-.82-.1-1.12.37-1.15,1.79-2.12.63-3.02-.26-.92-.91-1.66-1.91-.15-2.96.32-.23.74-.35.7-1.07-.42-.54-.88-1.51-1.76-1.49-1.03.02-.25.91-.29,1.4-.05.72-.45,1.24-.79,1.81-1.22,2.07-2.45,4.14-3.64,6.22-.38.65-.7,1.34-.04,2.02.66.66,1.36.35,2.02,0,2.11-1.15,4.23-2.29,6.31-3.49.81-.47,1.52-1.15,2.53-.44ZM33.47,169.2c-.99.54-2,1.03-2.96,1.52-.81-.19-.6-.64-.36-1.06.47-.8.95-1.61,1.44-2.39.31-.5.61-1.21,1.31-1.03.8.21,1.35.91,1.59,1.67.23.74-.5,1.01-1.01,1.29Z"></path><path class="cls-1" d="M147.73,23.16c.6-1.14,1.79-.36,2.63.2.73.48,1.53.97,1.07,2.07-.92,2.16-.89,2.24,1.68,2.96-.91-1.98-.08-3.67.53-5.41.49-1.38.89-2.8,1.27-4.22.25-.94.76-2.04-.41-2.7-1.08-.6-1.66.45-2.39.97-2.64,1.89-4.31,5-7.89,6.03,1.33.87,2.22,2.52,3.5.1ZM150.62,19.91c.98-.86,1.99-1.68,2.99-2.52.13.1.26.19.39.29-.35,1.27-.66,2.55-1.06,3.8-.2.6-.38,1.4-1.24,1.35-.84-.05-1.5-.63-1.89-1.32-.44-.78.32-1.19.8-1.61Z"></path><path class="cls-1" d="M161.09,171.92c-.23-.56-.53-1.09-.38-1.73.04-.51.66-1.29-.4-1.35-.68-.03-1.16.61-1.57,1.14-.47.62.03.89.43,1.28,1.68,1.66-.21,2.29-1.03,3.09-.91.88-1.96.94-2.57-.42-.24-.53-.33-1.08-1.07-.65-.63.37-1.47.7-1.52,1.47-.06.87.79.37,1.22.51.43.15.89.31,1.25.57,2.06,1.49,4.1,3,6.13,4.52.58.43,1.1,1.16,1.91.6.89-.62.7-1.5.35-2.35-.91-2.23-1.82-4.45-2.74-6.68ZM158.74,176.91c-.45-.37-.55-.91-.19-1.44.39-.57.9-1.02,1.58-1.15.7-.14.89.49,1.08.96.5,1.22.96,2.46,1.6,4.12-1.92-.51-2.95-1.57-4.07-2.48Z"></path><path class="cls-1" d="M57.71,179.86c-.95-.66-1.5-.63-2.12.6-.95,1.87-2.11.36-3.14-.13-.97-.46-1.5-1.12-.8-2.22.71-1.11.25-2.26-1.02-2.61-.65-.18-.99.1-.76.69.64,1.61-.1,3-.49,4.47-.48,1.87-.76,3.8-1.47,5.41-.11.84-.01,1.42.57,1.79.7.45,1.27.13,1.79-.37,1.78-1.72,3.55-3.44,5.33-5.16.53-.51,1.01-1.09,1.84-1.09.43,0,1.05.29,1.15-.4.08-.54-.51-.71-.89-.97ZM49.68,186.24c-.61-.04-.52-.48-.43-.86.32-1.21.65-2.43,1.02-3.63.21-.7.74-.94,1.4-.63.7.32,1.53.54,1.61,1.42-.05.59-3.17,3.73-3.61,3.7Z"></path><path class="cls-1" d="M130.02,186.41c-1.4-.11-2.46.54-3.26,1.59-2.39,3.15.08,9.45,3.99,10.18,1.79.34,3.16-.33,4.02-1.91,1.51-2.76.52-5.3-.89-7.72-.84-1.44-2.23-2.04-3.86-2.14ZM132.37,196.92c-1.48.55-2.7-.23-3.7-1.33-1.28-1.41-1.75-3.14-1.71-4.96.02-1.24.57-2.37,1.81-2.88,1.25-.51,2.36-.05,3.3.8,1.4,1.26,2.14,2.85,2.27,4.86-.16,1.36-.36,2.91-1.97,3.5Z"></path><path class="cls-1" d="M18.71,62.51c-.66.03-1.34.15-2,.08-2.39-.26-4.78-.59-7.32-.91-.45-.04-1.08-.11-1.42.56-.38.74-.01,1.29.53,1.75.56.47,1.25.83,1.72,1.38,1.79,2.06,4.95,2.76,5.75,5.81.1.38.52.29.81.03.86-.77.62-2.26-.46-2.74-1.98-.89-.78-2.26-.42-3.39.37-1.16,1.24-1.59,2.33-.74.5.4.89.92,1.44.14.39-.55.86-1.15.58-1.83-.35-.89-1.02-.16-1.55-.14ZM15.03,64.57c-.11.74-.35,1.46-.99,1.89-.48.32-.89-.05-1.21-.39-.99-1.03-2.39-1.61-3.34-3.04,1.75-.2,3.22.02,4.68.4.57.14.96.5.87,1.14Z"></path><path class="cls-1" d="M33.7,40.52c3-.02,4.97-2.64,4.01-5.48-.93-2.75-3.01-4.4-5.72-5.15-2.34-.64-4.4.85-4.87,3.25-.64,3.27,3.04,7.39,6.58,7.37ZM31.54,31.01c2.35.28,4.76,2.57,5.2,4.95.39,2.13-.62,3.36-2.8,3.37-2.53.02-5.41-2.46-5.78-4.99-.32-2.15,1.15-3.59,3.38-3.33Z"></path><path class="cls-1" d="M200.38,104.22c-.88-.31-1.79-.56-2.66-.87-2.28-.82-4.75-1.18-6.92-2.92.1,1.22-1.51,2.81,1.46,2.6,1.67-.12,1.12,1.79,1.13,2.89.01,1.05-.57,2.06-1.7,1.63-1.45-.56-1.45.2-1.49,1.15-.02.51-.31,1.05.4,1.84.6-1.54,1.89-1.74,3.11-2.02,2.15-.49,4.3-.97,6.44-1.46.74-.17,1.46-.44,1.54-1.33.09-.93-.63-1.25-1.34-1.5ZM195.91,106.96c-.54.13-1.11.11-1.39-.48-.33-.7-.3-1.44.06-2.12.31-.57.87-.58,1.41-.4,1.37.46,2.84.66,4.47,1.63-1.69.85-3.15,1.03-4.56,1.37Z"></path><path class="cls-1" d="M167.45,163.14c-2.37-.1-4.4,2.12-4.04,4.43.09.6.23,1.42.92,1.34.91-.1.38-.94.41-1.36-.18-2.28.87-3.46,2.8-3.26,2.29.23,5.02,2.8,5.38,5.07.37,2.35-.89,3.58-3.24,3.21-.6-.1-1.36-.95-1.78-.19-.38.7.54,1.28.98,1.81.68.82,1.47,1.55,2.32.08.19-.32.55-.62.91-.76,2.14-.86,2.29-2.64,2.01-4.51-.41-2.76-3.88-5.74-6.66-5.86Z"></path><path class="cls-1" d="M154.54,29.34c1.26,1.19,2.53,2.37,3.82,3.53q2.57,2.3,4.84-.26c.33-.37,1.05-.74.48-1.28-.52-.5-.93.15-1.31.49-.2.18-.35.41-.57.57-1.48,1.13-2.29-.16-3.25-.91-.94-.73-1.22-1.53-.35-2.55,1.17-1.37,2.31-2.78,3.42-4.2.76-.97,1.52-1.72,2.86-.95.18.1.55.06.73-.06.25-.17.19-.53-.02-.7-1.17-.97-2.14-2.23-3.87-2.8.67,2.38-.57,4.59-4.03,8.09-.91.92-1.7.79-2.93-.02.12.68.08.94.19,1.05Z"></path><path class="cls-1" d="M101.17,11.32c2.39,1.04,4.37.62,6.25.93,3.71.61,3.23-.46,3.42-3.53.02-.34-.04-.72-.46-.75-.4-.04-.56.33-.65.65-.09.32-.14.65-.18.98-.19,1.74-1.47,1.6-2.7,1.59-1.35,0-2.16-.56-2.14-2.02.02-1.4,0-2.8.04-4.2.07-1.86-.03-3.87,2.81-4.04-1.43-.86-2.79-.98-4.19-.91-.33.02-.7.02-.86.37-.18.41.14.61.44.76.98.49.92,1.35.83,2.24-.12,1.26-.2,2.52-.25,3.79-.08,1.65.42,3.52-2.39,4.14Z"></path><path class="cls-1" d="M68.68,185.69c-1.39-1.42-3.26-1.81-4.89-2.64q-3.31-1.67-4.67,1.61c-.17.42-.6.95-.05,1.23.66.35.91-.32,1.1-.8.56-1.4,1.42-1.74,2.84-1.13,2.47,1.05,2.65,1.37,1.57,3.88-.31.74-.61,1.48-.97,2.2-.88,1.77-1.3,4.09-4.34,3.53,1.32,1.16,2.65,1.89,4.45,2.33-.99-3.28,1.94-9.17,4.94-10.21Z"></path><path class="cls-1" d="M24.15,52.06c-.37-.12-.69-.39-1.05-.56-.48-.23-1-1.11-1.49-.36-.43.65.42,1.02.9,1.31,1.32.79,1.48,1.67.59,2.95-.86,1.25-1.64,2.36-3.35,1.37-1.44-.84-2.86-1.73-4.33-2.5-1.19-.62-2.05-1.29-1.32-2.79.14-.3.19-.69-.18-.88-.38-.2-.63.11-.81.39-.78,1.21-1.69,2.37-2.28,4.49,2.78-2.05,4.37-.12,6,.89,1.61,1,4.43,1.18,3.52,4.42.99-.19,1.26-.81,1.59-1.36.99-1.66,1.91-3.37,2.99-4.97.82-1.23.63-1.93-.76-2.39Z"></path><path class="cls-1" d="M190.26,88.92c0,1.96-.02,3.91,0,5.87.03,3.38.29,3.61,3.56,3.15.44-.06,1.1.05,1.12-.57.02-.64-.64-.55-1.08-.59-.91-.1-1.91.1-2.3-1.12-.82-2.53.11-3.94,2.76-4.15.93-.07,1.85-.24,2.79-.31,1.74-.13,3.58-.51,4.45,1.89.51-1.18.31-2.13.31-3.05,0-.57.2-1.36-.5-1.59-.71-.24-.68.66-1.02,1.01-.41.42-.95.5-1.47.55-1.73.15-3.48.16-5.19.42-1.47.22-2.66.19-3.43-1.51Z"></path><path class="cls-1" d="M1.24,89.54c.65-.84,1.48-.74,2.36-.59,1.38.23,2.76.43,4.14.68,1.43.25,2.94.4,3.58,2.25.93-2.66,1.51-5.28,1.71-7.97.04-.6-.44-.98-1.02-1.07-1.02-.15-2.05-.25-3.56-.41.81,1.22,1.59,1.28,2.26,1.48,1.13.33,1.19,1.16.97,2.07-.25,1.02.19,2.66-1.35,2.75-1.7.1-3.42-.42-5.15-.57-1.91-.17-3.53-.62-3.47-3.66-1.26,1.98-1.22,3.49-1.45,4.87-.15.92.56.7.97.18Z"></path><path class="cls-1" d="M182.79,160.63c-.46-.37-.89.13-1.14.49-.99,1.39-1.92,1.07-2.96.04-.56-.56-1.26-.98-1.89-1.48-1.82-1.43-4.19-2.62-2.42-5.6,0-.02-.08-.09-.31-.34-1.6,1.47-2.86,3.23-4.18,4.93-.21.26-.27.65.12.84.35.17.68-.06.87-.32,1.21-1.64,2.29-.98,3.46.1.88.81,1.9,1.46,2.85,2.2,1.32,1.02,2.64,2.03,1.02,3.85-.26.29-.41.79,0,1.07.54.37.83-.12,1.12-.48,1.09-1.34,2.29-2.6,3.14-4.13.21-.37.84-.74.3-1.17Z"></path><path class="cls-1" d="M198.23,142.07c-1.13.48-2.37.79-2.97,2.32,1.17-.16,2.35-.25,3.5-.51.62-.14,1.05-.67.81-1.38-.23-.65-.81-.66-1.34-.43Z"></path><polygon class="cls-1" points="126.44 97.2 126.44 97.2 126.44 97.2 126.44 97.2"></polygon></g></g></svg>