<svg xmlns="http://www.w3.org/2000/svg" id="Capa_2" data-name="Capa 2" viewBox="0 0 299.34 125.48"><defs><style>      .cls-1 {        fill: #ff930a;        stroke-width: 0px;      }    </style></defs><g id="Capa_2-2" data-name="Capa 2"><g><path class="cls-1" d="M188.78,82.68h0c.04-.19-.07-.3-.21-.4,0,0,0,0,0,0-.13-.07-.26-.15-.4-.22h0c-.15-.09-.22-.23-.23-.4,0,0,0,0,0,0h0c.08-.62-.09-1.23-.11-1.84h0s0,0,0,0c0-.11,0-.23,0-.34h0c.02-.46-.08-.57-.52-.62-.03,0-.06-.03-.09-.05-.06-.11-.05-.22-.04-.33,0,0,0,0,0,0,.11-.35.03-.71.04-1.06-.02-.13-.02-.26-.15-.34h0c-.04-.06-.11-.05-.17-.06-.12-.1-.28-.01-.4-.09h0s-.07,0-.11-.01h0c-.16-.14-.1-.33-.12-.5,0-.06,0-.11,0-.17h0c.02-.22.04-.45.06-.67.02-.2.04-.41.06-.61h0c.06-.08.07-.18.06-.28.02-.03.04-.07.07-.1h0c.13-.05.23-.14.32-.24.1-.05.06-.14.06-.21,0-.37,0-.75,0-1.12.03-.05.05-.1.08-.16h0c.37-.06.6-.38.94-.52h0c.05-.02.06-.06.05-.11h0c0-.07,0-.15,0-.22,0-.25-.14-.36-.36-.41-.19-.05-.28-.14-.33-.37-.07-.31,0-.71-.37-.89h0c-.15-.06-.3-.11-.45-.17h0c-.06-.02-.11-.05-.17-.07h0c-.15-.08-.23-.23-.22-.39.01-.37-.15-.63-.45-.84-.21-.15-.39-.34-.68-.33h0c-.12-.05-.19-.13-.17-.28.04-.26-.06-.51-.05-.77,0-.09-.03-.18-.12-.19-.41-.05-.5-.31-.45-.67,0-.02-.03-.04-.04-.07h0c0-.19-.04-.39.11-.55h0c0-.06.01-.13-.05-.17-.05-.06-.1-.15-.17-.18-.22-.08-.25-.24-.23-.43h0c-.02-.15.06-.31-.05-.45,0,0,0,0,0,0-.48-.67-1.02-1.29-1.56-1.91-.35-.41-.66-.83-.96-1.28h0c-.05-.06-.11-.08-.18-.1,0,.01,0,.02-.02.03,0-.01,0-.02.02-.03-.09-.02-.17-.09-.27-.07-.3-.07-.6-.12-.9-.09-.18-.02-.35-.01-.52.04,0,0,0,0,0,0-.11,0-.23-.02-.32.06h0s-.07,0-.11,0c-.04,0-.07,0-.11,0-.06,0-.11,0-.17,0h0s0,0,0,0c-.31-.03-.11-.26-.16-.4h0s.07-.08.11-.12c.4-.14.7-.4.95-.73.12-.1.11-.26.14-.39.06-.12.11-.25.08-.39,0-.09,0-.19,0-.28,0-.2,0-.41,0-.61h0c-.13-.26-.16-.54-.21-.82-.06-.36-.25-.59-.56-.76,0,0,0,0,0,0h0c-.21-.19-.46-.3-.74-.33-.24-.07-.23-.26-.23-.45h0c0-.3-.08-.6-.05-.91,0-.09,0-.18-.06-.26h0s0,0,0,0c-.05-.23-.14-.45-.26-.65-.12-.21-.31-.39-.36-.64h0s0,0,0,0c-.01-.1.07-.15.11-.22h0s.04-.07.06-.11h0c.29-.26.52-.57.74-.89.02-.02.03-.04.05-.06.07-.06.12-.12.11-.22h0s0,0,0,0c-.02-.07-.05-.13-.11-.18h0,0c-.02-.12-.12-.2-.17-.31-.15-.33-.47-.57-.45-.98-.04-.26-.07-.52-.11-.78,0,0,0,0,0,0,0,0,0,0,0,0,.06-.71-.06-1.42-.12-2.13h0s0,0,0,0c.21-.49.34-.99.44-1.51h0c.04-.06.08-.11.12-.17.2-.25.41-.49.61-.74h0c.08-.02.12-.08.12-.16h0c0-.06,0-.11,0-.17,0-.1.01-.2.09-.28h0c.12-.23.22-.47.29-.73.08-.05.1-.14.11-.23.08-.24.27-.27.5-.28.25-.02.52.09.74-.11.09-.09.08-.19,0-.29,0,0,0,0,0,0h0c0-.11,0-.22-.02-.33-.17-.82-.28-1.64-.39-2.46,0-.08.03-.15.07-.21.27-.1.5-.28.75-.4.2-.09.33-.23.36-.44,0-.41,0-.82,0-1.23.08-.04.16-.08.24-.13.36-.19.76-.3,1.11-.53.08-.02.09-.07.1-.14.03-.22.07-.44.11-.65.05-.14.11-.21.29-.25.38-.08.74-.27.94-.64.13-.17.21-.36.27-.56.14-.28.45-.27.68-.4.15-.03.24-.13.28-.27h0s0,0,0,0c.08-.06.06-.14.06-.22.14-.45.28-.89.41-1.34,0,0,0,0,0,0,.09-.18.02-.37.03-.56h0c.08-.37-.12-.71-.11-1.07h0c0-.07,0-.15,0-.22h0c.06-.09.16-.16.16-.28h0c.24-.31.42-.65.57-1,.03-.08.07-.15.1-.23h0c.08-.11-.02-.22,0-.33h0c0-.24,0-.48,0-.73h0c0-.38-.13-.68-.5-.84h0c-.61-.35-1.27-.59-1.9-.89h0c-.29-.15-.52-.4-.84-.5h0c-.39-.31-.77-.63-1.18-.92-.46-.33-.89-.71-1.39-.99-.21-.18-.51-.21-.73-.38h0c-.13-.06-.26-.11-.39-.17-.05-.13-.17-.14-.28-.18h0c-.25-.15-.51-.3-.76-.44-.76-.42-1.51-.89-2.31-1.23,0,0,0,0,0,0-.04-.04-.08-.08-.12-.11-.72-.47-1.44-.94-2.15-1.41-.42-.27-.81-.58-1.25-.81,0,.02-.01.03-.03.03,0-.01.02-.02.03-.03-.15-.1-.28-.26-.49-.24h0c-.06-.07-.15-.06-.23-.06h0c-.13-.04-.3-.17-.36.06-.16.53-.47.93-.9,1.27-.64.51-1.31.85-2.17.56-.55-.19-1.04.1-1.16.65-.09.4-.21.81-.14,1.23.04.27-.09.4-.31.51-.61.29-1.21.6-1.81.91-.1.05-.24.09-.2.23.12.37-.03.74-.02,1.11,0,.11-.06.2-.12.3-.24.4-.63.44-1.04.48-.11,0-.23,0-.34,0-.16.02-.37-.11-.47.11-.31.64-.78,1.08-1.44,1.34-.24.05-.35.22-.43.43-.15.38-.31.75-.44,1.14-.21.63-.47,1.2-1.06,1.57-.08.05-.15.14-.2.23-.39.6-.76,1.21-1.15,1.81-.08.13-.13.26-.13.42.08,1.61.17,3.21.24,4.82.02.36.03.71-.13,1.06-.43,1.01-.82,2.04-1.23,3.06-.1.13-.31.02-.4.17h0s-.03,0-.04.01h0c-.08,0-.14.05-.19.09,0,0,0,0,0,0-.73.41-.84.93-.43,1.61.19.31.49.51.79.69.14.09.2.19.19.36-.02.57,0,1.13-.05,1.7-.03.47.14.83.48,1.12.39.33.73.71,1,1.15.12.21.27.42.16.69-.05,0-.11,0-.16,0-.03-.02-.06-.02-.09-.03-.23-.05-.47,0-.7-.02-.09,0-.19,0-.28-.01-.11-.01-.21-.03-.21.13-.01.26-.09.51-.06.77-.02.09-.04.19-.05.28-.14.05-.28.1-.41.16-.48.19-.62.53-.44,1.01.12.32.26.64.18,1-.17.73-.65,1.23-1.22,1.66-.42-.07-.72.1-.97.45-.21.29-.29.6-.31.93-.04.64-.51.97-.96,1.28-.32.22-.71.34-1.07.5-.03.01-.08.02-.1.04-.2.15-.39.31-.43.59-.03.25-.28.4-.31.63-.1.71.26,1.3.53,1.91.05.11.17.13.29.14.22,0,.45.02.67.02.22,0,.34.05.3.33-.05.35-.01.7.32.95.14.11.32.09.45.2,0,0,0,0,0,0,0,0,0,0,0,0h0c.15.04.24.16.35.24.07.13.17.21.28.3.3.22.58.46.87.69.13.1.17.21.09.36h0,0c-.04.06-.08.11-.12.16-.03,0-.05.02-.05.06-.13.15-.11.37-.27.51-.05.05-.09.1-.14.15-.49-.03-.59,0-.74.49-.13.42-.37.74-.71,1-.31.25-.52.53-.46.97.03.2.05.43-.06.63h0s-.01,0-.01,0h-.01s0,0,0,0h0s-.08,0-.12.01c0,0,0,0,0,0h0s-.04-.03-.07-.05c-.1-.19-.33-.17-.47-.3,0,0,0,0,0,0-.18-.15-.41-.17-.63-.16-.07-.05-.14-.06-.22-.05-.13-.03-.18-.13-.17-.24.03-.23-.1-.37-.27-.49h0c-.17-.12-.38-.14-.57-.22-.12-.02-.18-.1-.24-.2-.06-.11-.08-.25-.2-.31,0-.11-.08-.15-.18-.16h0c-.07,0-.15,0-.22,0h0c-.15.02-.3.04-.45.05h0c-.06,0-.11,0-.17,0-.06,0-.11,0-.17,0-.04,0-.08,0-.11,0h0c-.18-.1-.1-.28-.11-.43-.02-.33-.05-.65-.45-.75h0c-.06-.04-.13-.08-.21-.08h0s-.08-.05-.12-.04c-.05,0-.11,0-.16,0-.24-.06-.49,0-.73,0-.04,0-.07,0-.11,0-.17-.03-.33-.06-.46.09-.08.04-.17.07-.26.07-.1-.07-.23-.06-.34-.08-.05-.06-.11-.04-.17-.03-.1-.07-.22-.08-.34-.05-.07,0-.15,0-.22,0-.44-.03-.68.15-.76.58-.06.37.05.54.52.75.1.05.21.09.21.23,0,.16-.13.15-.24.17-.09-.03-.19-.07-.29-.05-.36-.11-.62-.02-.81.29-.2.34-.21.93.02,1.11.23.18.48.34.73.5.25.16.47.32.45.67,0,.11.07.23.11.34,0,.11.05.21.11.3h0c-.01.09-.02.18-.16.14-.23-.16-.46-.32-.68-.49h0c-.17,0-.34.05-.43.21h0c-.14.21-.06.44-.07.66h0c-.04.07-.08.12-.16.15-.41.18-.73.5-1.11.74-.16.1-.21.2-.04.34.18.15.26.36.27.59.02.32.12.62.18.93.03.15.11.19.26.17.31-.03.61-.02.92-.04.11,0,.21,0,.25.12.11.33.36.53.61.73.25.2.57.14.78-.14h0c.12-.15.1-.34.16-.51.34-.29.55-.3.78-.04.09.1.17.22.23.34.22.43.54.7,1.05.72.27,0,.53.06.8.09.12.04.25.03.38.02h0,0s.05.02.08.02q.69.04.61.76s0,.02,0,.03c0,.2.06.34.29.31.22-.03.28.07.26.27-.01.13,0,.26-.01.39,0,.18,0,.36-.24.41-.1.02-.09.12-.09.21.04.47.2.64.67.76.21.05.42.06.63.03.02,0,.04,0,.05,0,.4.02.4.33.43.6.03.23.14.31.37.31.83-.01,1.65-.01,2.48-.02,0,0,0,0,0,0,0,0,0,0,0,0,.09.02.17,0,.24-.05.24-.13.49-.26.73-.38.37-.07.72-.26,1.11-.23h0c.53.19,1.06.03,1.59.01.02.01.05.02.07.04.02.16-.11.26-.15.4-.06.2-.18.32-.41.26-.06-.02-.13,0-.19.01-.24-.04-.5.05-.73-.1h0c-.47-.05-.51-.02-.48.44.02.28.05.55.08.83.03.22,0,.4-.24.49-.19.08-.3.24-.34.45-.07.34-.06.68.03,1.02.04.08.11.05.18.05h0s0,0,0,0c.01.01.02.02.04.02.2.06.2.23.22.39.01.12-.04.26.07.37.17.13.37.05.56.07.11.21.03.41-.15.5-.19.09-.3.24-.45.36-.31.25-.56.59-1.04.53-.17-.02-.32.09-.4.28-.07.17-.11.33-.12.51-.05.22-.02.45,0,.67h0c-.02.07-.06.1-.14.1-.29,0-.52.12-.75.28l-.02.02c-.1.04-.18.09-.19.21-.02.02-.05.04-.07.06h0c-.27.28-.54.55-.59.96-.02.15-.1.24-.26.28-.21.05-.42.08-.61.18-.41.2-.58.55-.52,1.01.03.2-.04.28-.25.29-.37.02-.73.14-1.07.27-.26,0-.34.19-.44.37-.11.19-.19.4-.32.59-.22.32-.56.52-.87.76h0s0,0,0,0c-.1.02-.14.08-.14.18,0,.2,0,.41.01.61.01.15.11.25.26.29.23.05.45.1.68.14.43.09.8.55.8,1,0,.36-.05.72-.03,1.08.01.26.03.51-.02.77-.03.22-.09.46.06.67h0c.32.3.64.59.87.97.05.3.22.48.5.61.24.11.48.18.73.24.18.04.37.04.52.15,0,.72.05,1.44,0,2.17-.05.78-.18.67.72.91h0c.41.2.82.41,1.23.61.08.07.21.12.24.21.16.38.46.33.77.28.23,0,.49-.05.68.05.18.09.3.06.42-.02.24-.16.48-.31.62-.58h0s.02-.03.03-.05c.05-.06.1-.12.16-.17.7-.18,1.41-.34,2.12-.45.32-.05.62-.12.91-.27.16-.03.29-.09.37-.25.12-.26.34-.36.63-.38.29-.02.67-.03.77-.35.14-.43.42-.42.75-.4.13,0,.26,0,.39,0,.17,0,.27-.07.26-.25-.02-.24.12-.44.11-.68.02-.06.04-.11.06-.17h0c.21-.11.4-.26.65-.29.23-.03.36-.16.42-.38.16-.22.2-.49.32-.73h0,0c.29-.39.69-.54,1.17-.53.14,0,.28.02.42,0,.27-.04.4.08.45.33.05.29.27.39.51.45.17.04.35.04.52.07.4.07.88-.08,1.13.41.06.11.15.21.22.32.09.14.2.2.36.21.35.03.7.08,1.05.12.08.01.17,0,.22.1.09.21.2.42.28.63.13.35.23.39.59.26.2,0,.42-.12.61.06h0c0,.37.25.79.52.82.64.07,1.27.03,1.83-.33h0c.12-.07.05-.18.05-.27,0,0,0,0,0,0h0c0-.32,0-.63,0-.95.02-.06.03-.11.05-.17.02-.03.05-.07.07-.1.13-.01.26-.06.39,0,.02.02.03.04.05.06.02.1-.01.21.06.3,0,0,0,0,0,0v.02s.01.01.01.01c.06.12.14.12.24.06,0,0,0,0,0,0,.25-.06.53-.05.72-.25.27-.29.6-.47.98-.58.07-.02.14-.05.18-.12.03-.06.03-.11,0-.16.02-.33,0-.65-.06-.97,0,0,0,0,0,0,0-.13,0-.26,0-.38.17-.27.45-.38.72-.5.1-.04.21,0,.31.08.24.19.29.17.37-.14-.01-.01-.02-.03-.02-.04,0,.01.01.03.02.04.03-.17,0-.34.06-.5h0c.05-.04.11-.08.16-.13.32-.15.64-.29.95-.46.18-.1.41-.15.45-.42.02-.04.05-.07.07-.11.07-.06.06-.14.07-.22h0c.05-.11.13-.21.09-.34,0-.06,0-.11,0-.17h0c.16-.16.39-.18.52,0,.25.33.57.62.73,1.01.1.25.26.36.5.43.42.13.84.28,1.27.41.21.06.29.17.23.39-.11.38-.08.77-.06,1.16.01.22.11.32.34.36.48.08.96.18,1.45.26.16.03.22-.05.17-.21,0-.18.03-.35.11-.51.05-.04.08-.09.07-.16.07-.06.12-.13.11-.23.06-.07.16-.11.16-.23.15-.2.3-.39.54-.49.1-.04.24-.08.25-.23,0,0,0-.02.01-.03.06-.16.05-.32.03-.48h0c0-.06,0-.11.01-.17,0,0,0,0,0,0,.11-.14.05-.26-.1-.29-.2-.05-.35-.19-.52-.27-.08-.1-.05-.22-.06-.33,0-.02,0-.04,0-.05h0c0-.05.01-.11.02-.16.1-.15.35-.13.4-.34.02-.02.04-.04.06-.05h0c.05-.08-.04-.09-.07-.12,0,0,0,0,0,0,0,0,0,0,0,0-.02-.13-.14-.17-.22-.23-.26-.17-.31-.4-.29-.69.01-.14.05-.29-.05-.42,0-.17,0-.33-.01-.5.04-.11.08-.22.13-.33.12-.14-.06-.26-.02-.4h0c0-.17-.11-.27-.22-.37-.35-.29-.66-.6-.76-1.08-.02-.11-.11-.24-.24-.29h0c-.08-.12-.2-.18-.34-.16-.2-.06-.3-.19-.28-.4h0s0-.08,0-.12c.02-.03.05-.07.07-.1.02-.02.03-.04.05-.06.16-.09.39-.1.45-.34.03,0,.05-.02.04-.06h0s0,0,0,0c.02-.19.02-.38-.05-.56.02-.04.03-.08.05-.12.27-.13.56-.09.85-.11.53-.03,1.06-.07,1.45-.5.07-.08.18-.14.27-.19.2-.1.35-.24.45-.44.09-.07.12-.18.12-.27-.04-.42.16-.79.22-1.18.04-.37.08-.74.12-1.11h0c.09-.1.04-.19-.01-.28ZM151.7,58.45s0,0,0,0c0,0,0,0,0,0,0,0,0,0,0,0ZM149.58,77.41s0,0,0,0c0,0,0,0,0,0,0,0,0,0,0,0,0,0,0,0,0,0ZM151.32,78.55s0,0,0,0c0,0,0,0,0,0,0,0,0,0,0,0ZM149.79,95.87s0,0,0,0c0,0,0,0,0,0,0,0,0,0,0,0,0,0,0,0,0,0,0,0,0,0,0,0,0,0,0,0,0,0ZM154.46,101.63s0,0,0,0c0,0,0,0,0,0,0,0,0,0-.01,0ZM177.6,97.47s0,0,0,0c0,0-.01,0-.02,0,0,0,.01,0,.02,0ZM180.56,93.25s0,0,0,0c0,0,0,0,0,0,0,0,0,0,0,0ZM185.5,89.74s-.01,0-.02,0c0,0,0,0,0-.01,0,0,.01.01.02.02ZM185.95,76.28s0,0,0,0c0,0,0,0,0,0,0,0,0,0,0,0ZM186.17,75.1s.01-.01.02-.02c0,0,0,.02,0,.02,0,0-.01,0-.02,0ZM186.75,78.8s0,0,0,0c0,0,0,0,0,.01,0,0,0,0,0,0ZM186.94,78.76h0s0,0,0,0c0,0,0,0,0,0h0Z"></path><g><path class="cls-1" d="M136.76,125.48v-7.36h1.1v6.33h3.98v1.03h-5.09Z"></path><path class="cls-1" d="M153.26,123.64h-3.61l-.78,1.84h-1.12l3.23-7.38h.99l3.22,7.38h-1.14l-.79-1.84ZM150.09,122.62h2.74l-1.37-3.24-1.38,3.24Z"></path><path class="cls-1" d="M170.19,125.48h-1.1v-7.36h3.15c1.73,0,2.67.94,2.67,2.37s-.98,2.4-2.69,2.41h-2.03v2.59ZM172.11,121.88c1.09,0,1.66-.47,1.66-1.39s-.56-1.37-1.66-1.37h-1.92v2.75h1.92Z"></path><path class="cls-1" d="M185.88,123.64h-3.61l-.78,1.84h-1.12l3.23-7.38h.99l3.22,7.38h-1.13l-.79-1.84ZM182.71,122.62h2.74l-1.37-3.24-1.38,3.24Z"></path><path class="cls-1" d="M199.79,125.48h-5.84v-.8l4.31-5.55h-4.26v-1.01h5.74v.8l-4.3,5.55h4.35v1.01Z"></path></g><g><path class="cls-1" d="M137.39,4.35h-.64V.07h1.84c1.01,0,1.56.55,1.56,1.38s-.57,1.4-1.57,1.4h-1.18v1.51ZM138.51,2.26c.64,0,.97-.28.97-.81s-.32-.8-.97-.8h-1.12v1.6h1.12Z"></path><path class="cls-1" d="M145.29,4.35h-.64V.07h1.9c1,0,1.56.55,1.56,1.37,0,.7-.43,1.22-1.19,1.35l1.22,1.57h-.73l-1.19-1.53h-.92v1.53ZM146.47,2.24c.64,0,.97-.28.97-.8s-.33-.79-.97-.79h-1.18v1.59h1.18Z"></path><path class="cls-1" d="M156.93,2.21c0,1.24-.99,2.21-2.23,2.21s-2.23-.97-2.23-2.21.99-2.21,2.23-2.21,2.23.97,2.23,2.21ZM156.26,2.21c0-.92-.69-1.6-1.56-1.6s-1.56.67-1.56,1.6.69,1.6,1.56,1.6,1.56-.67,1.56-1.6Z"></path><path class="cls-1" d="M165.01,2.56h-1.43v-.56h2.08c.02.12.02.21.02.31,0,1.33-.94,2.12-2.12,2.12-1.28,0-2.22-.97-2.22-2.21s.96-2.21,2.23-2.21c1,0,1.82.6,2,1.46h-.68c-.15-.48-.61-.85-1.32-.85-.91,0-1.57.68-1.57,1.6s.64,1.6,1.56,1.6c.84,0,1.41-.54,1.45-1.26Z"></path><path class="cls-1" d="M170.87,4.35h-.64V.07h1.9c1,0,1.56.55,1.56,1.37,0,.7-.44,1.22-1.19,1.35l1.22,1.57h-.73l-1.19-1.53h-.92v1.53ZM172.05,2.24c.64,0,.97-.28.97-.8s-.33-.79-.97-.79h-1.18v1.59h1.18Z"></path><path class="cls-1" d="M180.97,3.28h-2.1l-.45,1.07h-.66l1.88-4.3h.58l1.87,4.3h-.66l-.46-1.07ZM179.12,2.69h1.6l-.8-1.89-.8,1.89Z"></path><path class="cls-1" d="M187.07,1.17v3.18h-.64V.06h.63l1.67,2.81,1.67-2.81h.62v4.29h-.65V1.18l-1.41,2.39h-.48l-1.42-2.4Z"></path><path class="cls-1" d="M198.58,3.28h-2.1l-.45,1.07h-.66l1.88-4.3h.58l1.87,4.3h-.66l-.46-1.07ZM196.73,2.69h1.6l-.8-1.89-.8,1.89Z"></path></g><g><path class="cls-1" d="M8.36,40.22v-6.35c0-15.94,6.35-22.63,19.51-22.63,4.13,0,8.58.78,10.59,1.34v13.94c-1.78-.33-4.13-.45-6.13-.45-5.69,0-8.03,2.79-8.03,9.48v4.68h12.71v14.05h-12.71v36.12h-15.94v-36.12H0v-14.05h8.36Z"></path><path class="cls-1" d="M44.15,65.31c0-14.83,11.48-26.42,25.87-26.42s25.87,11.26,25.87,25.98c0,2.12-.11,3.79-.33,5.24h-35.34c1.34,5.57,5.13,8.58,10.7,8.58,4.91,0,7.92-1.78,8.81-4.79h15.16c-1.78,8.7-9.81,17.84-24.75,17.84s-25.98-11.48-25.98-26.42ZM60.32,60.29h19.84c-1-5.35-4.91-8.36-9.59-8.36-5.35,0-8.81,3.46-10.26,8.36Z"></path><path class="cls-1" d="M142.38,55.38c-1.23-.22-3.68-.45-5.35-.45-8.25,0-12.82,5.46-12.82,14.27v21.18h-15.94v-50.17h15.27v7.69c2.56-4.57,7.8-8.14,15.16-8.14,1.56,0,2.9.11,3.68.33v15.27Z"></path><path class="cls-1" d="M215.16,38.88c6.02,0,10.93,2.45,14.38,6.58v-5.24h15.27v50.17h-15.27v-5.13c-3.46,4.13-8.25,6.47-14.27,6.47-13.71,0-23.52-11.48-23.52-26.42s9.81-26.42,23.41-26.42ZM218.62,77.35c5.91,0,10.59-4.68,10.59-12.04s-4.68-12.04-10.59-12.04-10.48,4.68-10.48,12.04,4.57,12.04,10.48,12.04Z"></path><path class="cls-1" d="M283.51,75.67c0-2.68-1.23-3.79-7.02-4.68l-4.01-.78c-10.7-1.56-15.61-7.02-15.61-15.27,0-9.92,8.47-16.05,20.18-16.05,15.27,0,20.51,7.69,21.29,16.5h-14.27c-.34-2.45-2.34-4.24-5.91-4.24-3.12,0-5.46,1.34-5.46,3.79,0,3.12,2.68,3.79,7.8,4.57l3.9.56c9.92,1.34,14.94,6.35,14.94,15.27,0,10.03-8.03,16.28-21.74,16.28s-20.63-7.47-21.41-16.61h14.38c.33,2.68,2.9,4.46,6.91,4.46,3.34,0,6.02-1,6.02-3.79Z"></path></g><path class="cls-1" d="M136.42,38.11s1.67-.12,1.87-.1V9.59l59.86-.05v34.62s1.18-1.15,1.88-1.69V7.66h-63.61v30.45Z"></path><path class="cls-1" d="M136.42,56.72s.9-.03,1.87.03v55.3h59.86v-25.62s1.12,1.12,1.87,1.68v25.81h-63.6v-57.2Z"></path></g></g></svg>