<svg xmlns="http://www.w3.org/2000/svg" id="Capa_2" data-name="Capa 2" viewBox="0 0 165.99 167.61"><defs><style>      .cls-1 {        fill: #ff930a;        stroke-width: 0px;      }    </style></defs><g id="Capa_2-2" data-name="Capa 2"><g><g><g><path class="cls-1" d="M51.27,132c0,1.37-1.2,2.48-2.7,2.48h-17.26c-1.49,0-2.7-1.11-2.7-2.47V48.19c0-2.03,2.58-3.26,4.31-1.98.01,0,.03.02.04.03l17.09,12.8c.63.47.99,1.17.99,1.91l.22,71.06Z"></path><path class="cls-1" d="M140.62,131.94c0,1.8-1.59,3.26-3.55,3.26h-15.55c-1.96,0-3.55-1.46-3.55-3.25V62.18c0-.98.48-1.9,1.3-2.51l15.29-11.47c2.31-1.74,5.79-.24,5.8,2.51l.25,81.24Z"></path><path class="cls-1" d="M96.13,127.21c0,.94-.91,1.7-2.03,1.7h-18.58c-1.12,0-2.03-.76-2.03-1.7v-47.45c0-1.43,1.99-2.22,3.32-1.31l2.72,1.86c2.97,2.03,7.24,2.03,10.21,0l2.92-1.99c1.32-.91,3.32-.12,3.32,1.31l.16,47.6Z"></path></g><path class="cls-1" d="M165.91,6.99l-3.63,20.58c-.44,2.53-2.69,4.36-5.33,4.36-1.55,0-3.03-.65-4.05-1.78l-3.33-3.66-59.61,44.22c-1.37,1.02-3.09,1.58-4.84,1.58s-3.46-.56-4.84-1.58L29.15,32.79c-.08-.06-.2-.09-.33-.09-.19,0-.32.07-.36.11l-11.01,11.94c-1.49,1.62-3.64,2.54-5.91,2.54-.88,0-1.75-.14-2.58-.41-.82-.27-1.6-.68-2.29-1.19l-3.68-2.76c-1.68-1.27-2.76-3.16-2.95-5.19-.19-2.01.51-4.03,1.9-5.55L21.17,11.25c1.49-1.62,3.65-2.55,5.92-2.55,1.75,0,3.46.56,4.84,1.59l52.86,39.26c.08.06.2.09.34.09s.26-.04.34-.09l50.81-37.69-2.86-3.15c-1.39-1.54-1.74-3.66-.9-5.54.85-1.92,2.8-3.17,4.96-3.17h.22l23.11.87c1.59.06,3.07.79,4.05,2,.94,1.16,1.33,2.67,1.07,4.12Z"></path></g><g><path class="cls-1" d="M6.2,163.61v2.89c0,.48-.39.87-.87.87h-1.94c-.48,0-.87-.39-.87-.87v-11.68c0-.48.39-.87.87-.87h2.24c.32,0,.61.17.76.45l3.07,5.51c.33.6,1.19.6,1.52,0l3.07-5.51c.15-.28.45-.45.76-.45h2.2c.48,0,.87.39.87.87v11.68c0,.48-.39.87-.87.87h-1.94c-.48,0-.87-.39-.87-.87v-2.89c0-.91-1.21-1.21-1.64-.41l-.78,1.45c-.15.28-.45.46-.77.46h-1.64c-.32,0-.62-.18-.77-.46l-.78-1.45c-.43-.8-1.64-.5-1.64.41Z"></path><path class="cls-1" d="M34.51,167.38h-1.94c-.48,0-.87-.39-.87-.87v-11.68c0-.48.39-.87.87-.87h1.94c.48,0,.87.39.87.87v11.68c0,.48-.39.87-.87.87Z"></path><path class="cls-1" d="M52,167.38h-1.94c-.48,0-.87-.39-.87-.87v-11.68c0-.48.39-.87.87-.87h5.4c3.62,0,5.31,2.03,5.31,4.77s-1.69,4.79-5.31,4.79h-1.72c-.48,0-.87.39-.87.87v2.11c0,.48-.39.87-.87.87ZM55.17,160.24c1.17,0,1.78-.54,1.78-1.52s-.61-1.5-1.78-1.5h-1.43c-.48,0-.87.39-.87.87v1.27c0,.48.39.87.87.87h1.43Z"></path><path class="cls-1" d="M80.44,157.81l1.81-3.39c.15-.28.45-.46.77-.46h2.11c.68,0,1.1.74.75,1.32l-4.27,7.2c-.08.13-.12.29-.12.45v3.59c0,.48-.39.87-.87.87h-1.9c-.48,0-.87-.39-.87-.87v-3.51c0-.16-.04-.31-.12-.44l-4.31-7.28c-.34-.58.07-1.32.75-1.32h2.15c.32,0,.62.18.77.46l1.84,3.4c.33.61,1.21.61,1.54,0Z"></path><path class="cls-1" d="M103.22,163.61v2.89c0,.48-.39.87-.87.87h-1.94c-.48,0-.87-.39-.87-.87v-11.68c0-.48.39-.87.87-.87h2.24c.32,0,.61.17.76.45l3.07,5.51c.33.6,1.19.6,1.52,0l3.07-5.51c.15-.28.45-.45.76-.45h2.2c.48,0,.87.39.87.87v11.68c0,.48-.39.87-.87.87h-1.94c-.48,0-.87-.39-.87-.87v-2.89c0-.91-1.21-1.21-1.64-.41l-.78,1.45c-.15.28-.45.46-.77.46h-1.64c-.32,0-.62-.18-.77-.46l-.78-1.45c-.43-.8-1.64-.5-1.64.41Z"></path><path class="cls-1" d="M128.73,166.5v-11.68c0-.48.39-.87.87-.87h8.65c.48,0,.87.39.87.87v1.53c0,.48-.39.87-.87.87h-4.97c-.48,0-.87.39-.87.87h0c0,.48.39.87.87.87h4.41c.48,0,.87.39.87.87v1.53c0,.48-.39.87-.87.87h-4.41c-.48,0-.87.39-.87.87v.1c0,.48.39.87.87.87h5.01c.48,0,.87.39.87.87v1.53c0,.48-.39.87-.87.87h-8.69c-.48,0-.87-.39-.87-.87Z"></path><path class="cls-1" d="M159.77,163.39c0-.67-.52-1.04-2.05-1.25l-1.13-.15c-3.07-.42-4.28-1.99-4.28-4.08,0-2.4,1.78-4.18,5.33-4.18,2.95,0,4.69,1.23,5.28,3.11.17.56-.25,1.13-.84,1.13h-2.04c-.27,0-.49-.16-.63-.38-.27-.4-.84-.63-1.71-.63-1.11,0-1.69.36-1.69.98,0,.69.61.94,2.07,1.13l1.13.15c3.11.42,4.26,1.82,4.26,3.97,0,2.88-2.11,4.43-5.6,4.43-3.04,0-4.9-1.21-5.49-3.22-.16-.56.25-1.13.84-1.13h1.98c.29,0,.59.14.73.39.25.45.85.74,2,.74,1.23,0,1.84-.38,1.84-1Z"></path></g></g></g></svg>