<svg xmlns="http://www.w3.org/2000/svg" id="Capa_2" data-name="Capa 2" viewBox="0 0 310.25 73.88"><defs><style>      .cls-1 {        fill: #ff930a;        stroke-width: 0px;      }    </style></defs><g id="Capa_2-2" data-name="Capa 2"><g><path class="cls-1" d="M9.37,22.11v14.86c0,4.93,2.18,6.83,5.99,6.83,3.03,0,5.35-.42,6.83-1.34h.35v3.38c0,3.87-2.82,6.34-8.31,6.34-9.58,0-14.23-5.21-14.23-14.08V15.28c0-3.73.7-5.14,2.75-7.54,1.27-1.48,2.96-2.6,4.44-2.6h2.18v8.59h13.17v3.87c0,1.97-1.76,4.5-5.64,4.5h-7.53Z"></path><path class="cls-1" d="M46.35,44.36v2.04c0,4.09-1.62,5.7-5.63,5.7-7.32,0-11.34-4.15-11.34-11.83V14.58h2.67c4.23,0,6.76,2.25,6.76,7.04v17.74c0,3.8,1.62,5,5.78,5h1.76Z"></path><path class="cls-1" d="M39.59,5.49c0,3.03-2.54,5.56-5.56,5.56s-5.49-2.53-5.49-5.56,2.47-5.49,5.49-5.49,5.56,2.46,5.56,5.49Z"></path><path class="cls-1" d="M103.04,17.6c0,1.48-1.55,8.03-4.37,15.91-2.81,8.03-6.34,15-8.8,18.66h-1.55c-2.96,0-5.21-2.75-6.48-5.07-2.33-4.23-5.21-11.27-6.27-17.04-1.2,5.77-5.63,17.53-9.01,22.11h-1.27c-2.82,0-5.49-2.81-6.76-5.07-5.49-9.72-9.15-20.7-10.84-33.37h5.07c3.24,0,5.14,2.46,5.49,4.58,1.13,6.48,2.89,13.66,6.05,20.56,3.45-7.53,5.35-15.7,7.18-23.73h3.1c2.89,0,5.77,1.2,6.69,5.35,1.12,5.14,3.45,13.03,6.12,18.38,3.59-7.95,5.64-16.76,7.11-25.34h3.94c2.68,0,4.58,1.2,4.58,4.08Z"></path><path class="cls-1" d="M122.43,13.03c-10,0-13.8,5.07-13.8,9.29v3.03h.35c1.41-1.76,5.21-4.37,12.04-4.37,5.63,0,8.17,1.62,8.17,6.97v.5h-3.31c-13.94,0-18.87,5.14-18.87,11.9s6.19,12.04,15.21,12.04h1.9c8.45,0,14.37-5.56,14.37-13.59v-8.73c0-13.1-7.6-17.04-16.06-17.04ZM129.26,38.86c0,3.87-1.97,5.85-6.06,5.85s-6.55-1.76-6.55-4.72,2.04-4.79,9.23-4.79h3.38v3.66Z"></path><path class="cls-1" d="M213.04,13.03c-10,0-13.8,5.07-13.8,9.29v3.03h.35c1.41-1.76,5.21-4.37,12.04-4.37,5.63,0,8.17,1.62,8.17,6.97v.5h-3.31c-13.94,0-18.87,5.14-18.87,11.9s6.2,12.04,15.21,12.04h1.9c8.45,0,14.36-5.56,14.36-13.59v-8.73c0-13.1-7.6-17.04-16.05-17.04ZM219.87,38.86c0,3.87-1.97,5.85-6.06,5.85s-6.55-1.76-6.55-4.72,2.04-4.79,9.23-4.79h3.38v3.66Z"></path><path class="cls-1" d="M272.28,47.32c-.99,3.03-2.54,4.65-6.4,4.65-2.11,0-4.58-.99-6.2-2.6-4.86-5-9.08-10.63-13.24-16.19v18.52l-3.03.07c-4.36.07-6.48-2.25-6.48-6.69V1.05h3.03c4.57,0,6.47,2.61,6.47,6.27v22.67c3.67-4.79,7.25-9.65,11.62-13.8,2.25-2.11,4.5-2.46,7.53-2.46h5.43v.35c-2.68,2.25-11.48,12.25-15.42,17.25,3.03,3.73,5.99,7.6,9.37,11.05,3.45,3.45,5,4.15,7.32,4.93Z"></path><path class="cls-1" d="M310.25,20.49v14.23c0,11.83-5.56,17.88-16.62,17.88-9.36,0-16.76-6.2-16.76-17.25V13.73h1.76c5.42,0,7.81,2.32,7.81,6.76v13.94c0,6.97,3.38,9.79,7.67,9.79,3.87,0,6.62-2.68,6.62-9.15V13.73h1.69c5.49,0,7.81,2.32,7.81,6.76Z"></path><path class="cls-1" d="M192.73,15.46v40.77h-20.18c2.3-.06,4.15-1.94,4.15-4.26v-27.34c0-.12,0-.23-.01-.34v-.1l-.08-.48-.09-.62h0c-.52-1.7-2.02-3.22-3.21-5.43-.22-.37-.33-.78-.4-1.17-.13-1.17-.34-2.33.75-3.21h.01l.48-.33c.05-.07.14-.17.19-.25.11-.18.2-.37.25-.59.03-.08.04-.18.04-.26v-.05c0-.17-.03-.33-.08-.48,0-.01-.01-.04-.03-.07-.01-.04-.01-.08-.03-.11-.03-.01-.03-.03-.04-.04-.03-.08-.07-.15-.11-.22-.05-.08-.14-.18-.19-.25-.3-.29-.7-.47-1.15-.47h-7.68c-.91,0-1.64.73-1.64,1.63,0,.64.39,1.22.95,1.48,1.25.95.89,2.04.77,3.21-.07.38-.19.79-.4,1.17-1.19,2.21-2.69,3.73-3.21,5.42h0s-.09.63-.09.63l-.08.48v.1c-.01.11-.01.22-.01.34v27.34c0,2.32,1.85,4.2,4.16,4.26h-7.1c-7.29,0-13.21-5.92-13.21-13.21V15.46c0-8.11,6.57-14.68,14.68-14.68h17.94c8.11,0,14.68,6.57,14.68,14.68Z"></path><polygon class="cls-1" points="141.86 72.47 141.86 73.76 136.04 73.76 136.04 65.55 137.57 65.55 137.57 72.47 141.86 72.47"></polygon><path class="cls-1" d="M149.46,65.55h-1.5l-3.69,8.21h1.56l.81-1.9h4.11l.81,1.9h1.61l-3.71-8.21ZM147.15,70.67l1.54-3.59,1.53,3.59h-3.08Z"></path><polygon class="cls-1" points="151.05 63.28 149 64.89 147.74 64.89 149.32 63.28 151.05 63.28"></polygon><path class="cls-1" d="M158.21,67.58c.26-.26.57-.46.93-.6.36-.14.75-.21,1.18-.21s.82.08,1.18.24c.37.16.7.4,1.01.72l.98-.93c-.38-.45-.85-.8-1.41-1.03-.56-.23-1.17-.35-1.84-.35-.63,0-1.22.1-1.75.31-.53.21-1,.5-1.4.89-.4.38-.71.83-.93,1.34s-.33,1.07-.33,1.69.11,1.18.33,1.69.53.95.92,1.34c.39.38.86.68,1.39.89.53.21,1.11.31,1.75.31.68,0,1.3-.12,1.85-.35.55-.23,1.02-.58,1.41-1.03l-.98-.93c-.3.33-.64.57-1.01.73-.37.16-.76.24-1.18.24s-.82-.07-1.18-.21c-.36-.14-.67-.34-.93-.6-.26-.26-.47-.56-.62-.91-.15-.35-.22-.74-.22-1.16s.07-.81.22-1.16c.15-.35.35-.66.62-.91Z"></path><polygon class="cls-1" points="173.12 65.55 173.12 66.84 170.4 66.84 170.4 73.76 168.88 73.76 168.88 66.84 166.16 66.84 166.16 65.55 173.12 65.55"></polygon><polygon class="cls-1" points="182.78 72.47 182.78 73.76 176.62 73.76 176.62 65.55 182.61 65.55 182.61 66.84 178.14 66.84 178.14 68.97 182.11 68.97 182.11 70.22 178.14 70.22 178.14 72.47 182.78 72.47"></polygon><path class="cls-1" d="M194.75,67.97c-.22-.52-.53-.97-.92-1.34-.39-.38-.86-.67-1.4-.88-.54-.21-1.13-.31-1.76-.31s-1.23.1-1.77.31c-.54.21-1.01.5-1.4.89-.4.38-.71.83-.93,1.34-.22.51-.33,1.07-.33,1.68s.11,1.16.33,1.67c.22.51.53.96.93,1.34.4.39.87.68,1.41.89.54.21,1.13.32,1.77.32s1.22-.1,1.76-.31c.54-.21,1-.5,1.4-.89.4-.38.7-.83.92-1.34.22-.51.33-1.07.33-1.68s-.11-1.17-.33-1.69ZM193.32,70.82c-.14.35-.35.66-.6.91-.26.25-.56.45-.91.59-.35.14-.73.21-1.14.21s-.8-.07-1.16-.21c-.36-.14-.66-.34-.92-.6-.26-.26-.46-.57-.61-.92-.15-.35-.22-.73-.22-1.15s.07-.81.22-1.16c.15-.35.35-.65.61-.91.26-.26.56-.46.92-.6.35-.14.74-.21,1.16-.21s.79.07,1.14.21c.35.14.65.34.91.6.27.26.47.56.6.91.15.35.21.74.21,1.16s-.07.81-.22,1.16Z"></path><path class="cls-1" d="M204.91,71.44c0,.44-.12.84-.36,1.21-.24.37-.61.67-1.1.89-.49.22-1.11.33-1.86.33-.64,0-1.25-.09-1.84-.27-.58-.18-1.05-.42-1.4-.71l.53-1.18c.33.26.74.47,1.22.65.48.17.98.26,1.49.26.43,0,.78-.05,1.04-.14.26-.09.46-.22.59-.38.13-.16.19-.34.19-.55,0-.25-.09-.45-.27-.6-.18-.15-.41-.27-.7-.36-.29-.09-.6-.17-.95-.25-.35-.08-.69-.17-1.04-.27-.35-.11-.67-.25-.96-.42-.29-.17-.52-.39-.7-.67-.18-.28-.26-.64-.26-1.08s.12-.85.36-1.22c.24-.37.6-.67,1.09-.89.49-.22,1.11-.33,1.86-.33.49,0,.98.06,1.47.18.48.13.91.31,1.27.54l-.48,1.18c-.37-.22-.75-.38-1.14-.49-.39-.1-.77-.16-1.13-.16-.42,0-.75.05-1.02.15-.26.1-.46.24-.58.4-.12.17-.18.35-.18.56,0,.25.09.45.26.6.18.15.41.27.69.36.29.09.6.17.96.25.35.08.7.17,1.04.27.34.11.66.24.95.41.29.17.52.39.7.67.17.28.26.63.26,1.06Z"></path></g></g></svg>