<svg xmlns="http://www.w3.org/2000/svg" id="Capa_2" data-name="Capa 2" viewBox="0 0 172.01 18.92"><defs><style>      .cls-1 {        fill-rule: evenodd;      }      .cls-1, .cls-2 {        fill: #4f0c60;        stroke-width: 0px;      }    </style></defs><g id="Capa_4" data-name="Capa 4"><g><g><path class="cls-2" d="M84.89,18.92c-5.22,0-9.46-4.24-9.46-9.46S79.67,0,84.89,0s9.46,4.24,9.46,9.46-4.24,9.46-9.46,9.46ZM84.89.2c-5.11,0-9.26,4.15-9.26,9.26s4.15,9.26,9.26,9.26,9.26-4.15,9.26-9.26S89.99.2,84.89.2Z"></path><g><g><rect class="cls-2" x="80.89" y="7.61" width="1.72" height="5.55"></rect><path class="cls-2" d="M81.74,6.88c.56,0,1.02-.46,1.02-1.02s-.45-1.02-1.02-1.02-1.02.46-1.02,1.02.45,1.02,1.02,1.02Z"></path></g><path class="cls-2" d="M85.35,10.24c0-.78.36-1.25,1.05-1.25.63,0,.94.45.94,1.25v2.91h1.71v-3.51c0-1.49-.84-2.21-2.02-2.21s-1.67.92-1.67.92v-.75h-1.65v5.55h1.65v-2.91Z"></path></g></g><g><path class="cls-2" d="M9.46,18.92C4.24,18.92,0,14.68,0,9.46S4.24,0,9.46,0s9.46,4.24,9.46,9.46-4.24,9.46-9.46,9.46ZM9.46.2C4.36.2.2,4.36.2,9.46s4.15,9.26,9.26,9.26,9.26-4.15,9.26-9.26S14.57.2,9.46.2Z"></path><path class="cls-2" d="M8.2,14.48h2.02v-5.06h1.41l.15-1.69h-1.56v-.96c0-.4.08-.56.47-.56h1.09v-1.76h-1.4c-1.5,0-2.18.66-2.18,1.93v1.35h-1.05v1.72h1.05v5.04Z"></path></g><g><path class="cls-2" d="M59.74,18.92c-5.22,0-9.46-4.24-9.46-9.46S54.53,0,59.74,0s9.46,4.24,9.46,9.46-4.24,9.46-9.46,9.46ZM59.74.2c-5.11,0-9.26,4.15-9.26,9.26s4.15,9.26,9.26,9.26,9.26-4.15,9.26-9.26S64.85.2,59.74.2Z"></path><g><path class="cls-2" d="M59.74,5.73c1.22,0,1.36,0,1.84.03.44.02.68.09.85.16.21.08.36.18.52.34.16.16.26.31.34.52.06.16.14.4.16.85.02.48.03.62.03,1.84s0,1.36-.03,1.84c-.02.44-.09.68-.16.85-.08.21-.18.36-.34.52s-.31.26-.52.34c-.16.06-.4.14-.85.16-.48.02-.62.03-1.84.03s-1.36,0-1.84-.03c-.44-.02-.68-.09-.85-.16-.21-.08-.36-.18-.52-.34-.16-.16-.26-.31-.34-.52-.06-.16-.14-.4-.16-.85-.02-.48-.03-.62-.03-1.84s0-1.36.03-1.84c.02-.44.09-.68.16-.85.08-.21.18-.36.34-.52.16-.16.31-.26.52-.34.16-.06.4-.14.85-.16.48-.02.62-.03,1.84-.03M59.74,4.91c-1.24,0-1.39,0-1.88.03-.48.02-.82.1-1.1.21-.3.12-.55.27-.81.52-.25.25-.41.51-.52.81-.11.29-.19.62-.21,1.1-.02.49-.03.64-.03,1.88s0,1.39.03,1.88c.02.48.1.82.21,1.1.12.3.27.55.52.81s.51.41.81.52c.29.11.62.19,1.1.21.49.02.64.03,1.88.03s1.39,0,1.88-.03c.48-.02.82-.1,1.1-.21.3-.12.55-.27.81-.52.25-.25.41-.51.52-.81.11-.29.19-.62.21-1.1.02-.49.03-.64.03-1.88s0-1.39-.03-1.88c-.02-.48-.1-.82-.21-1.1-.12-.3-.27-.55-.52-.81-.25-.25-.51-.41-.81-.52-.29-.11-.62-.19-1.1-.21-.49-.02-.64-.03-1.88-.03"></path><path class="cls-2" d="M59.74,7.13c-1.29,0-2.34,1.05-2.34,2.34s1.05,2.34,2.34,2.34,2.34-1.05,2.34-2.34-1.05-2.34-2.34-2.34M59.74,10.98c-.84,0-1.52-.68-1.52-1.52s.68-1.52,1.52-1.52,1.52.68,1.52,1.52-.68,1.52-1.52,1.52"></path><path class="cls-2" d="M62.72,7.03c0,.3-.24.55-.55.55s-.55-.24-.55-.55.24-.55.55-.55.55.24.55.55"></path></g></g><g><path class="cls-2" d="M34.6,18.92c-5.22,0-9.46-4.24-9.46-9.46S29.39,0,34.6,0s9.46,4.24,9.46,9.46-4.24,9.46-9.46,9.46ZM34.6.2c-5.11,0-9.26,4.15-9.26,9.26s4.15,9.26,9.26,9.26,9.26-4.15,9.26-9.26S39.71.2,34.6.2Z"></path><path class="cls-2" d="M31.95,10.23c.13.05.25,0,.28-.14.03-.1.09-.35.12-.45.04-.14.02-.19-.08-.32-.23-.27-.37-.62-.37-1.11,0-1.43,1.07-2.71,2.79-2.71,1.52,0,2.36.93,2.36,2.17,0,1.63-.72,3.01-1.8,3.01-.59,0-1.04-.49-.89-1.09.17-.72.5-1.49.5-2.01,0-.46-.25-.85-.76-.85-.61,0-1.09.63-1.09,1.47,0,.53.18.9.18.9,0,0-.62,2.63-.73,3.09-.22.92-.03,2.04-.02,2.15,0,.07.1.08.13.03.06-.07.78-.96,1.02-1.85.07-.25.4-1.56.4-1.56.2.38.77.71,1.38.71,1.82,0,3.06-1.66,3.06-3.88,0-1.68-1.42-3.24-3.58-3.24-2.69,0-4.05,1.93-4.05,3.54,0,.97.37,1.84,1.16,2.16Z"></path></g><g><path class="cls-2" d="M110.03,18.92c-5.22,0-9.46-4.24-9.46-9.46S104.81,0,110.03,0s9.46,4.24,9.46,9.46-4.24,9.46-9.46,9.46ZM110.03.2c-5.11,0-9.26,4.15-9.26,9.26s4.15,9.26,9.26,9.26,9.26-4.15,9.26-9.26S115.13.2,110.03.2Z"></path><g><path class="cls-2" d="M108.79,12.43c.25-.05.47-.15.66-.29.16-.12.3-.28.41-.46.17-.27.26-.58.26-.93s-.08-.62-.23-.85c-.15-.23-.37-.4-.67-.51.2-.1.34-.21.44-.33.18-.22.27-.5.27-.86s-.09-.64-.27-.89c-.3-.4-.8-.61-1.51-.62h-2.81v5.81h2.62c.3,0,.57-.03.82-.08ZM106.51,7.7h1.26c.28,0,.51.03.69.09.21.09.31.27.31.54,0,.24-.08.41-.24.51-.16.1-.36.14-.61.14h-1.41v-1.28ZM106.51,11.49v-1.55h1.43c.25,0,.44.04.58.1.25.11.37.32.37.62,0,.36-.13.6-.38.73-.14.07-.34.1-.59.1h-1.41Z"></path><g><path class="cls-2" d="M111.1,12.12c.44.35.94.53,1.51.53.69,0,1.23-.21,1.62-.63.25-.26.39-.52.42-.78h-1.15c-.07.13-.14.22-.23.3-.16.13-.37.2-.62.2-.24,0-.45-.05-.62-.16-.28-.17-.43-.48-.45-.91h3.13c0-.37,0-.66-.04-.85-.05-.34-.17-.63-.34-.89-.19-.29-.44-.5-.74-.64-.3-.13-.64-.2-1.01-.2-.63,0-1.14.2-1.54.6-.39.4-.59.97-.59,1.71,0,.79.22,1.37.66,1.72ZM111.9,9.26c.16-.16.38-.25.67-.25.27,0,.49.08.67.23.18.15.28.38.3.68h-1.94c.04-.28.14-.5.3-.67Z"></path><rect class="cls-2" x="111.24" y="7.03" width="2.53" height=".59"></rect></g></g></g><g><path class="cls-2" d="M162.55,18.92c-5.22,0-9.46-4.24-9.46-9.46S157.33,0,162.55,0s9.46,4.24,9.46,9.46-4.24,9.46-9.46,9.46ZM162.55.2c-5.11,0-9.26,4.15-9.26,9.26s4.15,9.26,9.26,9.26,9.26-4.15,9.26-9.26S167.66.2,162.55.2Z"></path><g><path class="cls-1" d="M168.21,9.01c-.07-2.91-2.47-5.24-5.42-5.24s-5.29,2.28-5.41,5.14c0,.08,0,.16,0,.24,0,1.02.28,1.97.78,2.78l-.98,2.88,3-.95c.78.43,1.67.67,2.62.67,2.99,0,5.42-2.41,5.42-5.38,0-.05,0-.09,0-.14ZM162.8,13.67c-.93,0-1.79-.27-2.51-.75l-1.75.56.57-1.68c-.55-.75-.87-1.66-.87-2.65,0-.15,0-.29.02-.44.22-2.29,2.17-4.08,4.53-4.08s4.36,1.84,4.54,4.17c.01.12.02.23.02.35,0,2.49-2.05,4.52-4.56,4.52Z"></path><path class="cls-1" d="M165.28,10.23c-.13-.07-.79-.39-.91-.43-.12-.05-.21-.07-.3.07-.09.13-.35.43-.42.52-.08.09-.15.1-.29.03-.13-.07-.56-.2-1.07-.65-.39-.35-.66-.78-.74-.91-.08-.13,0-.2.06-.27.06-.06.13-.15.2-.23.02-.02.03-.04.05-.06.03-.05.05-.09.08-.16.05-.09.02-.16-.01-.23-.03-.07-.3-.72-.41-.98-.11-.26-.22-.22-.3-.22s-.16-.01-.25-.01-.23.03-.36.16c-.12.13-.46.45-.46,1.1,0,.15.03.3.07.45.13.46.42.85.47.91.07.09.92,1.46,2.27,1.99,1.35.53,1.35.35,1.6.33.24-.02.79-.32.9-.63.11-.31.11-.57.08-.63-.03-.05-.12-.09-.25-.15Z"></path></g></g><g><path class="cls-2" d="M136.66,18.92c-5.22,0-9.46-4.24-9.46-9.46s4.24-9.46,9.46-9.46,9.46,4.24,9.46,9.46-4.24,9.46-9.46,9.46ZM136.66.2c-5.11,0-9.26,4.15-9.26,9.26s4.15,9.26,9.26,9.26,9.26-4.15,9.26-9.26S141.77.2,136.66.2Z"></path><g><polygon class="cls-2" points="141.32 6.44 136.48 9.38 131.95 6.44 141.32 6.44"></polygon><path class="cls-2" d="M142.18,6.72v5.03c0,.41-.33.74-.74.74h-9.56c-.41,0-.74-.33-.74-.74v-5.03c0-.07.01-.15.03-.21l5.17,3.36s.09.04.13.04c.04,0,.09-.01.12-.04l5.55-3.37c.02.07.04.15.04.23Z"></path></g></g></g></g></svg>