<svg xmlns="http://www.w3.org/2000/svg" xmlns:xlink="http://www.w3.org/1999/xlink" id="Capa_2_00000179611351851111898820000004153067105319860411_" x="0px" y="0px" viewBox="0 0 86.8 60.1" style="enable-background:new 0 0 86.8 60.1;" xml:space="preserve"><style type="text/css">	.st0{display:none;}	.st1{display:inline;}	.st2{fill:#4F0C60;}</style><g id="Capa_4">	<g>		<g class="st0">			<g class="st1">				<path class="st2" d="M108.2,10V13h7v10.1c0,2.4-1,3.6-3.1,3.6c-0.8,0-1.5-0.2-2.1-0.6c-0.6-0.4-1.2-0.9-1.8-1.7l-2.1,2.5     c0.7,0.9,1.5,1.6,2.6,2.1c1.1,0.5,2.2,0.7,3.5,0.7c2.2,0,3.8-0.6,4.9-1.7c1.1-1.1,1.7-2.9,1.7-5.2V10     C118.9,10,108.2,10,108.2,10z"></path>				<path class="st2" d="M148.5,15.8c-0.5-1.2-1.3-2.3-2.2-3.2c-1-0.9-2.1-1.6-3.4-2.1c-1.3-0.5-2.7-0.8-4.2-0.8s-2.9,0.2-4.2,0.8     c-1.3,0.5-2.4,1.2-3.4,2.1c-0.9,0.9-1.7,2-2.2,3.2c-0.5,1.2-0.8,2.6-0.8,4s0.3,2.8,0.8,4c0.5,1.2,1.3,2.3,2.2,3.2     c1,0.9,2.1,1.6,3.4,2.1c1.3,0.5,2.7,0.8,4.2,0.8s2.9-0.2,4.2-0.8c1.3-0.5,2.4-1.2,3.4-2.1c0.9-0.9,1.7-2,2.2-3.2     c0.5-1.2,0.8-2.6,0.8-4S149,17,148.5,15.8z M145.1,22.5c-0.4,0.8-0.8,1.6-1.4,2.2c-0.6,0.6-1.3,1.1-2.2,1.4     c-0.8,0.3-1.8,0.5-2.8,0.5s-1.9-0.2-2.7-0.5c-0.8-0.3-1.6-0.8-2.2-1.4c-0.6-0.6-1.1-1.4-1.4-2.2c-0.3-0.8-0.5-1.8-0.5-2.8     s0.2-1.9,0.5-2.8c0.4-0.8,0.8-1.6,1.5-2.2s1.4-1.1,2.2-1.4c0.8-0.3,1.8-0.5,2.7-0.5s1.9,0.2,2.8,0.5c0.8,0.3,1.6,0.8,2.2,1.4     c0.6,0.6,1.1,1.4,1.4,2.2c0.3,0.8,0.5,1.8,0.5,2.8S145.4,21.7,145.1,22.5z"></path>				<path class="st2" d="M162.4,26.5V13h10.7V10h-14.3v19.6h14.7v-3H162.4z M162.1,18.1v3h9.8v-3H162.1z"></path>				<path class="st2" d="M186.8,26.5V10h-3.6v19.6H197v-3.1H186.8z"></path>				<path class="st2" d="M234.2,13.2c-0.7-1.1-1.6-1.9-2.9-2.4c-1.2-0.6-2.7-0.8-4.5-0.8h-8.1v19.6h3.6v-5.6h4.4     c1.7,0,3.2-0.3,4.5-0.8s2.2-1.4,2.9-2.4c0.7-1,1-2.3,1-3.7S234.9,14.3,234.2,13.2z M230.3,19.8c-0.8,0.7-2,1-3.6,1h-4.3v1.8     l-0.2-0.2l-1.4-1.6h1.6v-7.8h-1.6l1.6-1.8v1.8h4.3c1.6,0,2.8,0.3,3.6,1c0.8,0.7,1.2,1.6,1.2,2.9S231.2,19.1,230.3,19.8z"></path>				<path class="st2" d="M263.7,15.8c-0.5-1.2-1.3-2.3-2.2-3.2c-1-0.9-2.1-1.6-3.3-2.1c-1.3-0.5-2.7-0.8-4.2-0.8s-2.9,0.2-4.2,0.8     c-1.3,0.5-2.4,1.2-3.4,2.1c-0.9,0.9-1.7,2-2.2,3.2c-0.5,1.2-0.8,2.6-0.8,4s0.3,2.8,0.8,4c0.5,1.2,1.3,2.3,2.2,3.2     c0.9,0.9,2.1,1.6,3.4,2.1c1.3,0.5,2.7,0.8,4.2,0.8s2.9-0.2,4.2-0.8c1.3-0.5,2.4-1.2,3.3-2.1c1-0.9,1.7-2,2.2-3.2     c0.5-1.2,0.8-2.6,0.8-4S264.2,17,263.7,15.8z M260.3,22.5c-0.3,0.8-0.8,1.6-1.4,2.2c-0.6,0.6-1.3,1.1-2.2,1.4     c-0.8,0.3-1.8,0.5-2.8,0.5s-1.9-0.2-2.7-0.5c-0.8-0.3-1.6-0.8-2.2-1.4c-0.6-0.6-1.1-1.4-1.4-2.2c-0.3-0.8-0.5-1.8-0.5-2.8     s0.2-1.9,0.5-2.8c0.4-0.8,0.8-1.6,1.5-2.2c0.6-0.6,1.4-1.1,2.2-1.4c0.8-0.3,1.7-0.5,2.7-0.5s1.9,0.2,2.7,0.5     c0.8,0.3,1.6,0.8,2.2,1.4c0.6,0.6,1.1,1.4,1.4,2.2c0.4,0.8,0.5,1.8,0.5,2.8S260.6,21.7,260.3,22.5L260.3,22.5z"></path>				<path class="st2" d="M295.4,10h-3l-7.6,13l-7.8-13h-3v19.6h3.5V16.8l6.4,10.6h1.6l6.5-10.8l0,13h3.5L295.4,10L295.4,10z"></path>				<path class="st2" d="M315.9,10h-3.6l-8.8,19.6h3.8l1.9-4.5l1.2-2.9l3.7-8.6l3.7,8.6L319,25l2,4.5h3.8     C324.8,29.6,315.9,10,315.9,10z M319.1,22.2h-10.6l-1,2.9h12.5L319.1,22.2L319.1,22.2z"></path>			</g>			<g class="st1">				<path class="st2" d="M170.1,43.1c-0.4-0.7-1.1-1.3-1.9-1.7c-0.8-0.4-1.8-0.6-2.8-0.6h-4.3v9.9h4.3c1.1,0,2-0.2,2.8-0.6     c0.8-0.4,1.4-1,1.9-1.7s0.7-1.6,0.7-2.6S170.6,43.9,170.1,43.1z M168.5,47.5c-0.3,0.5-0.7,0.9-1.3,1.2c-0.5,0.3-1.2,0.4-1.9,0.4     h-2.4v-6.8h2.4c0.8,0,1.4,0.1,1.9,0.4c0.5,0.3,1,0.7,1.3,1.2c0.3,0.5,0.4,1.1,0.4,1.8S168.8,47,168.5,47.5z"></path>				<path class="st2" d="M175.6,40.8v9.9h1.8v-9.9H175.6z"></path>				<path class="st2" d="M189.7,46.6c-0.2-0.3-0.5-0.6-0.8-0.8c-0.4-0.2-0.7-0.4-1.1-0.5s-0.8-0.2-1.3-0.3c-0.4-0.1-0.8-0.2-1.1-0.3     c-0.4-0.1-0.6-0.2-0.8-0.4c-0.2-0.2-0.3-0.4-0.3-0.7c0-0.3,0.1-0.5,0.2-0.7c0.1-0.2,0.4-0.4,0.7-0.5c0.3-0.1,0.7-0.2,1.2-0.2     c0.4,0,0.9,0.1,1.4,0.2c0.5,0.1,0.9,0.3,1.4,0.6l0.6-1.4c-0.4-0.3-0.9-0.5-1.5-0.7c-0.6-0.2-1.2-0.2-1.8-0.2     c-0.9,0-1.6,0.1-2.2,0.4c-0.6,0.3-1,0.6-1.3,1.1c-0.3,0.5-0.4,0.9-0.4,1.5s0.1,1,0.3,1.3c0.2,0.3,0.5,0.6,0.8,0.8     c0.3,0.2,0.7,0.4,1.1,0.5s0.8,0.2,1.3,0.3s0.8,0.2,1.1,0.3c0.3,0.1,0.6,0.3,0.8,0.4c0.2,0.2,0.3,0.4,0.3,0.7     c0,0.2-0.1,0.5-0.2,0.7c-0.2,0.2-0.4,0.3-0.7,0.5c-0.3,0.1-0.7,0.2-1.3,0.2c-0.6,0-1.2-0.1-1.8-0.3c-0.6-0.2-1.1-0.5-1.5-0.8     l-0.6,1.4c0.4,0.3,1,0.6,1.7,0.8c0.7,0.2,1.4,0.3,2.2,0.3c0.9,0,1.6-0.1,2.2-0.4c0.6-0.3,1-0.6,1.3-1.1c0.3-0.5,0.4-0.9,0.4-1.5     S189.9,46.9,189.7,46.6L189.7,46.6z"></path>				<path class="st2" d="M196.5,49.2v-6.8h5.4v-1.5h-7.2v9.9h7.4v-1.5C202.1,49.1,196.5,49.1,196.5,49.2z M196.4,44.9v1.5h4.9v-1.5     H196.4z"></path>				<path class="st2" d="M213.9,40.8v6.7l-5.5-6.7h-1.5v9.9h1.8V44l5.5,6.7h1.5v-9.9H213.9z M212.9,38.1c0,0.2-0.1,0.5-0.2,0.6     s-0.3,0.2-0.5,0.2c-0.1,0-0.2,0-0.4-0.2c-0.1-0.1-0.3-0.2-0.4-0.3c-0.1-0.1-0.3-0.2-0.5-0.3c-0.2-0.1-0.4-0.1-0.6-0.1     c-0.5,0-0.8,0.2-1.1,0.5s-0.4,0.8-0.4,1.4h0.9c0-0.3,0.1-0.5,0.2-0.6c0.1-0.2,0.3-0.2,0.5-0.2c0.1,0,0.3,0,0.4,0.1     c0.1,0.1,0.3,0.2,0.4,0.3c0.1,0.1,0.3,0.2,0.5,0.3s0.4,0.1,0.6,0.1c0.5,0,0.8-0.2,1.1-0.5c0.3-0.3,0.4-0.8,0.4-1.3H212.9z"></path>				<path class="st2" d="M226.1,40.8h-1.8l-4.4,9.9h1.9l1-2.3l0.6-1.4l1.9-4.3L227,47l0.6,1.4l1,2.3h1.9L226.1,40.8z M227.7,47h-5.4     l-0.5,1.4h6.3L227.7,47L227.7,47z"></path>				<path class="st2" d="M243.7,43.1c-0.4-0.7-1.1-1.3-1.9-1.7c-0.8-0.4-1.8-0.6-2.8-0.6h-4.3v9.9h4.3c1.1,0,2-0.2,2.8-0.6     c0.8-0.4,1.4-1,1.9-1.7s0.7-1.6,0.7-2.6S244.1,43.9,243.7,43.1z M242.1,47.5c-0.3,0.5-0.7,0.9-1.3,1.2c-0.5,0.3-1.2,0.4-1.9,0.4     h-2.4v-6.8h2.4c0.8,0,1.4,0.1,1.9,0.4c0.6,0.3,1,0.7,1.3,1.2c0.3,0.5,0.4,1.1,0.4,1.8S242.4,47,242.1,47.5z"></path>				<path class="st2" d="M258.7,43.7c-0.3-0.6-0.6-1.2-1.1-1.6c-0.5-0.5-1-0.8-1.7-1.1c-0.6-0.3-1.4-0.4-2.1-0.4s-1.5,0.1-2.1,0.4     c-0.6,0.2-1.2,0.6-1.7,1.1c-0.5,0.5-0.9,1-1.1,1.6c-0.3,0.6-0.4,1.3-0.4,2s0.1,1.4,0.4,2c0.3,0.6,0.6,1.2,1.1,1.6     c0.5,0.5,1.1,0.8,1.7,1.1c0.6,0.3,1.4,0.4,2.1,0.4s1.5-0.1,2.1-0.4c0.6-0.2,1.2-0.6,1.7-1.1s0.9-1,1.1-1.6     c0.3-0.6,0.4-1.3,0.4-2S259,44.3,258.7,43.7z M257,47.1c-0.2,0.4-0.4,0.8-0.7,1.1s-0.7,0.6-1.1,0.7c-0.4,0.2-0.9,0.2-1.4,0.2     s-1-0.1-1.4-0.2c-0.4-0.2-0.8-0.4-1.1-0.7s-0.6-0.7-0.7-1.1c-0.2-0.4-0.3-0.9-0.3-1.4s0.1-1,0.3-1.4c0.2-0.4,0.4-0.8,0.7-1.1     c0.3-0.3,0.7-0.6,1.1-0.7c0.4-0.2,0.9-0.2,1.4-0.2s1,0.1,1.4,0.2c0.4,0.2,0.8,0.4,1.1,0.7s0.5,0.7,0.7,1.1     c0.2,0.4,0.3,0.9,0.3,1.4S257.2,46.7,257,47.1z"></path>				<path class="st2" d="M271.6,42.4c-0.3-0.5-0.8-0.9-1.5-1.2c-0.6-0.3-1.4-0.4-2.2-0.4h-4.1v9.9h1.8v-2.9h2.2c0.1,0,0.3,0,0.4,0     c0.6,0,1.2-0.1,1.7-0.3c0,0,0.1,0,0.1,0c0.6-0.3,1.1-0.7,1.5-1.2c0.3-0.5,0.5-1.2,0.5-1.9S272,43,271.6,42.4L271.6,42.4z      M269.7,45.8c-0.4,0.3-1,0.5-1.8,0.5h-2.1v0.9l-0.1-0.1l-0.7-0.8h0.8v-4h-0.8l0.8-0.9v0.9h2.1c0.8,0,1.4,0.2,1.8,0.5     c0.4,0.3,0.6,0.8,0.6,1.5S270.1,45.4,269.7,45.8z M270,47.4l-0.2-0.3h-2l0.5,0.7l2,2.9h2L270,47.4L270,47.4z"></path>			</g>		</g>		<g>			<g>				<path class="st2" d="M41.8,19.8v18.5c0,0.1-0.1,0.2-0.2,0.2h-0.8c-0.1,0-0.2-0.1-0.2-0.2V19.8c0-0.1,0.1-0.2,0.2-0.2h0.8     C41.7,19.6,41.8,19.7,41.8,19.8z"></path>				<path class="st2" d="M69.1,9c3.3,0,6,2.7,6,6c0,1.7,1.3,3,3,3h6c1.7,0,3-1.3,3-3v0c0-8.3-6.8-15-15-15h-6.3     c-3.6,0-6.9,1.2-9.4,3.3C53.7,1.2,50.4,0,46.8,0h-6.7c-3.6,0-6.9,1.3-9.5,3.4c-1.9-1.5-4.1-2.6-6.5-3.1c-1-0.2-2-0.3-3-0.3h-5.9     c-1.6,0-2.9,1.3-3,2.9c0,0,0,0,0,0V9c0,1.7,1.4,3,3,3h3c3.2,0,5.8,2.5,6,5.7v25.6c0,3.3-2.7,6-6,6s-6-2.7-6-6v0c0-1.7-1.4-3-3-3     H3c-1.2,0-2.3,0.7-2.8,1.8c-0.1,0.5-0.2,1-0.2,1.6C0,44.2,0,44.6,0,45.1c0,8.3,6.7,15,15,15h6c3.6,0,6.9-1.3,9.5-3.4     c2.6,2.1,5.9,3.4,9.5,3.4c0.1,0,0.2,0,0.2,0l0,0l6,0h0.4c3.6,0,6.8-1.2,9.4-3.3c2.6,2.1,5.9,3.3,9.4,3.3c0.1,0,0.2,0,0.3,0l0,0     l6,0c8.3,0,15-6.7,15-15c0-0.4,0-0.8-0.1-1.2c0-0.2,0.1-0.3,0.1-0.5c0-0.5-0.1-0.9-0.3-1.3c-0.5-1-1.5-1.7-2.7-1.7h-6     c-1.7,0-3,1.3-3,3c0,3.3-2.7,6-6,6s-6-2.7-6-6v-7.8h3c1.7,0,3-1.3,3-3v-6.1c0-0.8-0.4-1.5-0.9-2c-0.5-0.5-1.3-0.9-2.1-0.9h-3V15     C63,11.7,65.7,9,69.1,9z M43.7,48.2L43.7,48.2c-0.1,0.2-0.2,0.2-0.3,0.2c-0.1,0-0.3-0.1-0.3-0.2l0,0l0-0.1l-1.1-2.1h2.9     C44.8,46.1,43.7,48.2,43.7,48.2z M45.6,44.7l-4.4,0L39.5,41l7.4,1.1C46.9,42.1,45.6,44.7,45.6,44.7z M47.5,21.3     c0,0.1,0,0.2,0,0.2v14.4c0,0.1,0,0.2,0,0.2c0,0.1,0,0.2,0,0.2V41l-8.2-1.3V19.1c0-0.5,0.4-0.9,0.9-0.9h6.5     c0.5,0,0.9,0.4,0.9,0.9c0,0,0,0.1,0,0.1V21C47.4,21.1,47.5,21.2,47.5,21.3z M47.5,16c0,0.5-0.4,0.9-0.9,0.9h-6.5     c-0.5,0-0.9-0.4-0.9-0.9v-2.3h0c0-1.7,1.3-3,3-3h2.2c1.7,0,3,1.4,3,3C47.5,13.8,47.5,16,47.5,16z"></path>			</g>			<g>				<path class="st2" d="M41.8,19.8v18.5c0,0.1-0.1,0.2-0.2,0.2h-0.8c-0.1,0-0.2-0.1-0.2-0.2V19.8c0-0.1,0.1-0.2,0.2-0.2h0.8     C41.7,19.6,41.8,19.7,41.8,19.8z"></path>				<path class="st2" d="M41.8,19.8v18.5c0,0.1-0.1,0.2-0.2,0.2h-0.8c-0.1,0-0.2-0.1-0.2-0.2V19.8c0-0.1,0.1-0.2,0.2-0.2h0.8     C41.7,19.6,41.8,19.7,41.8,19.8z"></path>			</g>		</g>	</g></g></svg>