<svg xmlns="http://www.w3.org/2000/svg" xmlns:xlink="http://www.w3.org/1999/xlink" id="Capa_2_00000179611351851111898820000004153067105319860411_" x="0px" y="0px" viewBox="0 0 100 100" style="enable-background:new 0 0 100 100;" xml:space="preserve"><style type="text/css">	.st0{fill:#4F0C60;}</style><g id="Capa_4">	<g>		<g>			<g>				<path class="st0" d="M48.2,39.8v18.5c0,0.1-0.1,0.2-0.2,0.2h-0.8c-0.1,0-0.2-0.1-0.2-0.2V39.8c0-0.1,0.1-0.2,0.2-0.2H48     C48.2,39.6,48.2,39.7,48.2,39.8z"></path>				<path class="st0" d="M75.6,29c3.3,0,6,2.7,6,6c0,1.7,1.3,3,3,3h6c1.7,0,3-1.3,3-3l0,0c0-8.3-6.8-15-15-15h-6.3     c-3.6,0-6.9,1.2-9.4,3.3c-2.7-2.1-6-3.3-9.6-3.3h-6.7c-3.6,0-6.9,1.3-9.5,3.4c-1.9-1.5-4.1-2.6-6.5-3.1c-1-0.2-2-0.3-3-0.3h-5.9     c-1.6,0-2.9,1.3-3,2.9l0,0V29c0,1.7,1.4,3,3,3h3c3.2,0,5.8,2.5,6,5.7v25.6c0,3.3-2.7,6-6,6s-6-2.7-6-6l0,0c0-1.7-1.4-3-3-3H9.5     c-1.2,0-2.3,0.7-2.8,1.8c-0.1,0.5-0.2,1-0.2,1.6c0,0.5,0,0.9,0,1.4c0,8.3,6.7,15,15,15h6c3.6,0,6.9-1.3,9.5-3.4     c2.6,2.1,5.9,3.4,9.5,3.4c0.1,0,0.2,0,0.2,0l0,0h6h0.4c3.6,0,6.8-1.2,9.4-3.3c2.6,2.1,5.9,3.3,9.4,3.3c0.1,0,0.2,0,0.3,0l0,0h6     c8.3,0,15-6.7,15-15c0-0.4,0-0.8-0.1-1.2c0-0.2,0.1-0.3,0.1-0.5c0-0.5-0.1-0.9-0.3-1.3c-0.5-1-1.5-1.7-2.7-1.7h-6     c-1.7,0-3,1.3-3,3c0,3.3-2.7,6-6,6s-6-2.7-6-6v-7.8h3c1.7,0,3-1.3,3-3v-6.1c0-0.8-0.4-1.5-0.9-2s-1.3-0.9-2.1-0.9h-3V35     C69.4,31.7,72.1,29,75.6,29z M50.2,68.2L50.2,68.2c-0.1,0.2-0.2,0.2-0.3,0.2s-0.3-0.1-0.3-0.2l0,0v-0.1L48.5,66h2.9     C51.2,66.1,50.2,68.2,50.2,68.2z M52,64.7h-4.4L46,61l7.4,1.1L52,64.7z M54,41.2c0,0.1,0,0.2,0,0.2v14.4c0,0.1,0,0.2,0,0.2     c0,0.1,0,0.2,0,0.2V61l-8.2-1.3V39.1c0-0.5,0.4-0.9,0.9-0.9h6.5c0.5,0,0.9,0.4,0.9,0.9v0.1V41C53.9,41.1,54,41.2,54,41.2z      M54,36c0,0.5-0.4,0.9-0.9,0.9h-6.5c-0.5,0-0.9-0.4-0.9-0.9v-2.3l0,0c0-1.7,1.3-3,3-3h2.2c1.7,0,3,1.4,3,3C54,33.8,54,36,54,36z     "></path>			</g>			<g>				<path class="st0" d="M48.2,39.8v18.5c0,0.1-0.1,0.2-0.2,0.2h-0.8c-0.1,0-0.2-0.1-0.2-0.2V39.8c0-0.1,0.1-0.2,0.2-0.2H48     C48.2,39.6,48.2,39.7,48.2,39.8z"></path>				<path class="st0" d="M48.2,39.8v18.5c0,0.1-0.1,0.2-0.2,0.2h-0.8c-0.1,0-0.2-0.1-0.2-0.2V39.8c0-0.1,0.1-0.2,0.2-0.2H48     C48.2,39.6,48.2,39.7,48.2,39.8z"></path>			</g>		</g>	</g></g></svg>