<svg xmlns="http://www.w3.org/2000/svg" xmlns:xlink="http://www.w3.org/1999/xlink" id="Capa_2_00000179611351851111898820000004153067105319860411_" x="0px" y="0px" viewBox="0 0 512 512" style="enable-background:new 0 0 512 512;" xml:space="preserve"><style type="text/css">	.st0{fill:#4F0C60;}</style><g id="Capa_4">	<g>		<g>			<g>				<path class="st0" d="M247.4,208.2v86.2c0,0.5-0.5,0.9-0.9,0.9h-3.7c-0.5,0-0.9-0.5-0.9-0.9v-86.2c0-0.5,0.5-0.9,0.9-0.9h3.7     C247.4,207.3,247.4,207.8,247.4,208.2z"></path>				<path class="st0" d="M375.1,157.9c15.4,0,28,12.6,28,28c0,7.9,6.1,14,14,14h28c7.9,0,14-6.1,14-14l0,0     c0-38.7-31.7-69.9-69.9-69.9h-29.4c-16.8,0-32.2,5.6-43.8,15.4c-12.6-9.8-28-15.4-44.7-15.4h-31.2c-16.8,0-32.2,6.1-44.3,15.8     c-8.9-7-19.1-12.1-30.3-14.4c-4.7-0.9-9.3-1.4-14-1.4h-27.5c-7.5,0-13.5,6.1-14,13.5l0,0v28.4c0,7.9,6.5,14,14,14h14     c14.9,0,27,11.7,28,26.6v119.3c0,15.4-12.6,28-28,28s-28-12.6-28-28l0,0c0-7.9-6.5-14-14-14H67c-5.6,0-10.7,3.3-13,8.4     c-0.5,2.3-0.9,4.7-0.9,7.5c0,2.3,0,4.2,0,6.5C53,364.8,84.3,396,123,396h28c16.8,0,32.2-6.1,44.3-15.8     c12.1,9.8,27.5,15.8,44.3,15.8c0.5,0,0.9,0,0.9,0l0,0h28h1.9c16.8,0,31.7-5.6,43.8-15.4c12.1,9.8,27.5,15.4,43.8,15.4     c0.5,0,0.9,0,1.4,0l0,0h28c38.7,0,69.9-31.2,69.9-69.9c0-1.9,0-3.7-0.5-5.6c0-0.9,0.5-1.4,0.5-2.3c0-2.3-0.5-4.2-1.4-6.1     c-2.3-4.7-7-7.9-12.6-7.9h-28c-7.9,0-14,6.1-14,14c0,15.4-12.6,28-28,28s-28-12.6-28-28v-36.3h14c7.9,0,14-6.1,14-14v-28.4     c0-3.7-1.9-7-4.2-9.3s-6.1-4.2-9.8-4.2h-14v-40.1C346.2,170.5,358.8,157.9,375.1,157.9z M256.7,340.6L256.7,340.6     c-0.5,0.9-0.9,0.9-1.4,0.9c-0.5,0-1.4-0.5-1.4-0.9l0,0v-0.5l-5.1-9.8h13.5C261.4,330.8,256.7,340.6,256.7,340.6z M265.1,324.3     h-20.5l-7.5-17.2l34.5,5.1L265.1,324.3z M274.4,214.8c0,0.5,0,0.9,0,0.9v67.1c0,0.5,0,0.9,0,0.9c0,0.5,0,0.9,0,0.9V307     l-38.2-6.1v-96c0-2.3,1.9-4.2,4.2-4.2h30.3c2.3,0,4.2,1.9,4.2,4.2v0.5v8.4C273.9,214.3,274.4,214.8,274.4,214.8z M274.4,190.5     c0,2.3-1.9,4.2-4.2,4.2h-30.3c-2.3,0-4.2-1.9-4.2-4.2v-10.7l0,0c0-7.9,6.1-14,14-14H260c7.9,0,14,6.5,14,14     C274.4,180.3,274.4,190.5,274.4,190.5z"></path>			</g>			<g>				<path class="st0" d="M247.4,208.2v86.2c0,0.5-0.5,0.9-0.9,0.9h-3.7c-0.5,0-0.9-0.5-0.9-0.9v-86.2c0-0.5,0.5-0.9,0.9-0.9h3.7     C247.4,207.3,247.4,207.8,247.4,208.2z"></path>				<path class="st0" d="M247.4,208.2v86.2c0,0.5-0.5,0.9-0.9,0.9h-3.7c-0.5,0-0.9-0.5-0.9-0.9v-86.2c0-0.5,0.5-0.9,0.9-0.9h3.7     C247.4,207.3,247.4,207.8,247.4,208.2z"></path>			</g>		</g>	</g></g></svg>