<svg xmlns="http://www.w3.org/2000/svg" id="Capa_2" data-name="Capa 2" viewBox="0 0 324.77 60.13"><defs><style>      .cls-1 {        fill: #4f0c60;        stroke-width: 0px;      }    </style></defs><g id="Capa_4" data-name="Capa 4"><g><g><g><path class="cls-1" d="M108.25,9.97v3.05h6.98v10.14c0,2.41-1.02,3.61-3.05,3.61-.77,0-1.48-.18-2.12-.56-.64-.37-1.24-.93-1.78-1.68l-2.07,2.5c.67.91,1.54,1.61,2.59,2.1,1.06.48,2.21.72,3.46.72,2.15,0,3.78-.56,4.91-1.7,1.13-1.14,1.7-2.87,1.7-5.18v-13h-10.62Z"></path><path class="cls-1" d="M148.5,15.75c-.52-1.22-1.26-2.28-2.21-3.19-.96-.9-2.07-1.61-3.35-2.11-1.28-.51-2.68-.76-4.22-.76s-2.91.25-4.2.76c-1.28.5-2.4,1.21-3.36,2.11-.95.91-1.69,1.97-2.21,3.19-.52,1.23-.78,2.57-.78,4.02s.26,2.8.78,4.02c.52,1.22,1.26,2.29,2.21,3.19.96.91,2.08,1.61,3.36,2.12,1.29.5,2.7.75,4.23.75s2.91-.25,4.19-.75c1.28-.51,2.39-1.21,3.35-2.1.95-.9,1.69-1.96,2.21-3.19.52-1.24.78-2.58.78-4.04s-.26-2.79-.78-4.02ZM145.1,22.53c-.35.83-.83,1.56-1.45,2.19-.61.62-1.34,1.1-2.18,1.44-.84.33-1.76.5-2.75.5s-1.9-.17-2.74-.5c-.84-.34-1.57-.82-2.18-1.44-.62-.63-1.1-1.36-1.45-2.2-.34-.84-.52-1.76-.52-2.75s.18-1.92.52-2.76c.35-.83.83-1.55,1.46-2.18.63-.63,1.35-1.11,2.18-1.44.84-.34,1.75-.51,2.73-.51s1.91.17,2.75.51c.84.33,1.57.81,2.18,1.44.62.63,1.1,1.35,1.45,2.18.34.84.51,1.75.51,2.76s-.17,1.93-.51,2.76Z"></path><path class="cls-1" d="M162.39,26.52v-13.5h10.67v-3.05h-14.31v19.6h14.7v-3.05h-11.06ZM162.11,18.12v3h9.75v-3h-9.75Z"></path><path class="cls-1" d="M186.75,26.49V9.97h-3.64v19.6h13.89v-3.08h-10.25Z"></path><path class="cls-1" d="M234.22,13.22c-.67-1.05-1.63-1.85-2.87-2.41-1.24-.56-2.73-.84-4.46-.84h-8.07v19.6h3.64v-5.65h4.43c1.73,0,3.22-.28,4.46-.84,1.24-.56,2.2-1.37,2.87-2.41.68-1.05,1.01-2.29,1.01-3.73s-.33-2.67-1.01-3.72ZM230.34,19.81c-.81.69-2.02,1.03-3.62,1.03h-4.26v1.76l-.18-.2-1.44-1.56h1.62v-7.79h-1.62l1.62-1.79v1.79h4.26c1.6,0,2.81.34,3.62,1.01.82.67,1.22,1.63,1.22,2.88s-.4,2.19-1.22,2.87Z"></path><path class="cls-1" d="M263.69,15.75c-.53-1.22-1.26-2.28-2.22-3.19-.95-.9-2.06-1.61-3.34-2.11-1.28-.51-2.69-.76-4.22-.76s-2.91.25-4.2.76c-1.29.5-2.41,1.21-3.36,2.11-.95.91-1.69,1.97-2.21,3.19-.52,1.23-.79,2.57-.79,4.02s.27,2.8.79,4.02c.52,1.22,1.26,2.29,2.21,3.19.95.91,2.07,1.61,3.36,2.12,1.29.5,2.7.75,4.23.75s2.91-.25,4.19-.75c1.28-.51,2.39-1.21,3.34-2.1.96-.9,1.69-1.96,2.22-3.19.52-1.24.78-2.58.78-4.04s-.26-2.79-.78-4.02ZM260.28,22.53c-.34.83-.82,1.56-1.44,2.19-.61.62-1.34,1.1-2.18,1.44-.84.33-1.76.5-2.75.5s-1.9-.17-2.74-.5c-.84-.34-1.57-.82-2.19-1.44-.61-.63-1.09-1.36-1.44-2.2-.34-.84-.52-1.76-.52-2.75s.18-1.92.52-2.76c.35-.83.83-1.55,1.46-2.18.62-.63,1.35-1.11,2.18-1.44.83-.34,1.74-.51,2.73-.51s1.91.17,2.75.51c.84.33,1.57.81,2.18,1.44.62.63,1.1,1.35,1.44,2.18.35.84.52,1.75.52,2.76s-.17,1.93-.52,2.76Z"></path><path class="cls-1" d="M295.36,9.97h-3l-7.65,12.99-7.78-12.99h-2.99v19.6h3.47v-12.81l6.44,10.57h1.62l6.45-10.75.02,12.99h3.45l-.03-19.6Z"></path><path class="cls-1" d="M315.92,9.97h-3.59l-8.82,19.6h3.75l1.94-4.53,1.22-2.86,3.68-8.59,3.69,8.59,1.22,2.86,1.95,4.53h3.81l-8.85-19.6ZM319.14,22.18h-10.59l-.98,2.86h12.55l-.98-2.86Z"></path></g><g><path class="cls-1" d="M170.14,43.14c-.45-.73-1.08-1.31-1.89-1.72-.81-.42-1.76-.62-2.83-.62h-4.33v9.89h4.33c1.07,0,2.02-.2,2.83-.62.81-.41,1.44-.99,1.89-1.73s.68-1.61.68-2.59-.23-1.87-.68-2.61ZM168.52,47.53c-.3.51-.72.9-1.26,1.18-.54.29-1.18.43-1.93.43h-2.4v-6.79h2.4c.75,0,1.39.14,1.93.43.54.28.96.67,1.26,1.18.3.5.45,1.1.45,1.79s-.15,1.27-.45,1.78Z"></path><path class="cls-1" d="M175.6,40.8v9.89h1.83v-9.89h-1.83Z"></path><path class="cls-1" d="M189.68,46.61c-.21-.34-.49-.61-.83-.81-.35-.2-.73-.36-1.15-.48s-.84-.23-1.26-.33c-.43-.1-.81-.2-1.15-.3-.35-.11-.63-.25-.84-.44-.21-.18-.32-.42-.32-.72,0-.26.08-.49.22-.68.15-.2.38-.36.7-.48.31-.13.72-.19,1.23-.19.44,0,.89.07,1.36.19.47.13.93.33,1.37.59l.58-1.43c-.43-.28-.94-.5-1.53-.65-.58-.15-1.17-.22-1.76-.22-.91,0-1.65.13-2.24.4-.59.27-1.03.63-1.32,1.07-.29.45-.43.94-.43,1.48s.11.96.33,1.3c.21.34.49.61.84.81.34.21.72.37,1.14.5.42.13.84.24,1.26.33.42.09.8.2,1.15.3.34.11.62.26.84.44.21.19.32.43.32.73,0,.25-.07.47-.22.66-.16.19-.39.34-.71.46-.32.11-.74.17-1.26.17-.61,0-1.21-.11-1.8-.31-.58-.21-1.07-.47-1.46-.78l-.64,1.43c.41.35.97.63,1.68.85.71.22,1.45.33,2.22.33.91,0,1.65-.13,2.25-.4.59-.27,1.03-.63,1.32-1.07.29-.45.43-.94.43-1.47s-.1-.94-.32-1.28Z"></path><path class="cls-1" d="M196.49,49.15v-6.81h5.39v-1.54h-7.23v9.89h7.42v-1.54h-5.58ZM196.35,44.91v1.51h4.92v-1.51h-4.92Z"></path><path class="cls-1" d="M213.92,40.8v6.7l-5.46-6.7h-1.51v9.89h1.82v-6.71l5.46,6.71h1.51v-9.89h-1.82ZM212.94,38.14c-.01.25-.07.45-.2.59s-.29.22-.49.22c-.12,0-.25-.05-.38-.15-.13-.09-.27-.2-.42-.32-.14-.12-.31-.23-.5-.33-.19-.09-.39-.14-.62-.14-.46,0-.83.17-1.1.51-.27.34-.41.8-.43,1.39h.95c.02-.27.09-.47.21-.63.12-.15.28-.22.48-.22.13,0,.27.05.4.14.13.09.27.2.41.33.15.13.32.24.5.33s.39.13.62.13c.46,0,.82-.17,1.1-.51.27-.35.41-.79.42-1.34h-.95Z"></path><path class="cls-1" d="M226.09,40.8h-1.81l-4.45,9.89h1.89l.98-2.29.62-1.44,1.85-4.33,1.86,4.33.62,1.44.99,2.29h1.92l-4.47-9.89ZM227.72,46.96h-5.35l-.49,1.44h6.33l-.49-1.44Z"></path><path class="cls-1" d="M243.69,43.14c-.45-.73-1.08-1.31-1.89-1.72-.81-.42-1.76-.62-2.83-.62h-4.33v9.89h4.33c1.07,0,2.02-.2,2.83-.62.81-.41,1.44-.99,1.89-1.73s.68-1.61.68-2.59-.23-1.87-.68-2.61ZM242.07,47.53c-.29.51-.71.9-1.26,1.18-.54.29-1.18.43-1.93.43h-2.4v-6.79h2.4c.75,0,1.39.14,1.93.43.55.28.97.67,1.26,1.18.3.5.45,1.1.45,1.79s-.15,1.27-.45,1.78Z"></path><path class="cls-1" d="M258.7,43.72c-.26-.62-.63-1.16-1.11-1.62-.48-.45-1.05-.81-1.69-1.06-.65-.26-1.36-.38-2.13-.38s-1.47.12-2.12.38c-.65.25-1.22.61-1.7,1.06-.48.46-.85,1-1.11,1.62-.27.61-.4,1.29-.4,2.03s.13,1.41.4,2.02c.26.62.63,1.16,1.11,1.62.48.45,1.05.81,1.7,1.06.65.26,1.36.38,2.13.38s1.47-.12,2.12-.38c.64-.25,1.21-.61,1.69-1.06.48-.45.85-.99,1.11-1.61.27-.62.4-1.3.4-2.03s-.13-1.42-.4-2.03ZM256.99,47.14c-.18.42-.42.78-.73,1.1s-.68.56-1.1.73c-.43.17-.89.25-1.39.25s-.96-.08-1.39-.25c-.42-.17-.79-.41-1.1-.73s-.55-.69-.73-1.11c-.17-.42-.26-.89-.26-1.38s.09-.98.26-1.4c.18-.42.42-.78.74-1.1.31-.32.68-.56,1.1-.73.42-.17.88-.25,1.38-.25s.96.08,1.39.25c.42.17.79.41,1.1.73s.55.68.73,1.1c.17.42.26.89.26,1.4s-.09.97-.26,1.39Z"></path><path class="cls-1" d="M271.65,42.44c-.34-.53-.82-.94-1.45-1.22-.62-.28-1.37-.42-2.25-.42h-4.07v9.89h1.83v-2.88h2.24c.13,0,.26,0,.38-.02.65-.02,1.23-.14,1.72-.35.05-.01.1-.03.15-.05.63-.28,1.11-.68,1.45-1.2.34-.52.51-1.15.51-1.87s-.17-1.35-.51-1.88ZM269.69,45.77c-.41.35-1.02.53-1.83.53h-2.15v.87l-.09-.1-.72-.77h.81v-3.95h-.81l.81-.9v.9h2.15c.81,0,1.42.17,1.83.51.41.34.62.83.62,1.46s-.21,1.1-.62,1.45ZM270.05,47.44l-.24-.34h-1.96l.48.69,2.02,2.9h1.98l-2.28-3.25Z"></path></g></g><g><g><path class="cls-1" d="M41.8,19.78v18.45c0,.12-.1.21-.21.21h-.83c-.12,0-.21-.09-.21-.21v-18.45c0-.12.09-.22.21-.22h.83c.11,0,.21.1.21.22Z"></path><path class="cls-1" d="M69.05,9.02c3.31,0,5.99,2.66,6.02,5.96,0,1.66,1.34,3,3,3h5.99c1.66,0,3.01-1.34,3.01-3v-.02c-.04-8.27-6.75-14.96-15.03-14.96h-6.34c-3.57,0-6.86,1.24-9.44,3.33-2.58-2.09-5.86-3.33-9.43-3.33h-6.71c-3.61,0-6.93,1.28-9.52,3.4-1.85-1.51-4.06-2.59-6.48-3.09-.98-.2-2-.31-3.05-.31h-5.95c-1.63.01-2.95,1.31-2.98,2.94-.02.01-.03.02-.04.03v6.06c0,1.67,1.35,3.03,3.02,3.03h3.03c3.2.01,5.81,2.54,5.97,5.7v25.6c0,3.32-2.69,6.01-6.01,6.01s-6.01-2.69-6.01-6.01v-.02c0-1.66-1.35-3.01-3.01-3.01H3.04c-1.23,0-2.28.74-2.75,1.79-.1.52-.18,1.05-.23,1.59-.04.45-.06.92-.06,1.39,0,8.3,6.73,15.03,15.03,15.03h6.04c3.62,0,6.94-1.28,9.53-3.4,2.59,2.12,5.91,3.4,9.52,3.4.09,0,.17,0,.25-.01h0s6.03.01,6.03.01h.43c3.57,0,6.85-1.25,9.43-3.33,2.58,2.08,5.87,3.33,9.44,3.33.1,0,.2,0,.3-.01h0s6.04.01,6.04.01c8.3,0,15.03-6.73,15.03-15.03,0-.42-.02-.82-.05-1.23.03-.16.05-.34.05-.51,0-.48-.11-.92-.31-1.33-.48-.99-1.51-1.68-2.7-1.68h-5.99c-1.66,0-3,1.35-3,3.01,0,3.32-2.69,6.01-6.02,6.01s-6.01-2.69-6.01-6.01v-7.8h3.01c1.66,0,3-1.35,3-3.01v-6.12c-.03-.8-.38-1.53-.92-2.05-.54-.53-1.27-.85-2.08-.85h-3.01v-8.5c0-3.32,2.69-6.01,6.01-6.01ZM43.71,48.2l-.03.07c-.07.1-.19.17-.32.17-.14,0-.26-.07-.33-.18h0s-.03-.06-.03-.06l-1.1-2.11h2.91l-1.1,2.11ZM45.58,44.67l-4.4-.02-1.66-3.64,7.37,1.13-1.31,2.53ZM47.46,21.27c0,.08-.01.16-.02.24v14.4c.01.08.02.16.02.23,0,.08-.01.16-.02.24v4.63l-8.17-1.28v-20.6c0-.47.39-.86.86-.86h6.46c.48,0,.87.38.87.86,0,.05-.01.1-.02.15v1.76c.01.08.02.16.02.23ZM47.46,16.04c0,.48-.39.87-.87.87h-6.46c-.48,0-.87-.39-.87-.87v-2.28h.01c0-1.66,1.35-3.01,3.01-3.01h2.17c1.66,0,3.01,1.35,3.01,3.01v2.28Z"></path></g><g><path class="cls-1" d="M41.8,19.78v18.45c0,.12-.1.21-.21.21h-.83c-.12,0-.21-.09-.21-.21v-18.45c0-.12.09-.22.21-.22h.83c.11,0,.21.1.21.22Z"></path><path class="cls-1" d="M41.8,19.78v18.45c0,.12-.1.21-.21.21h-.83c-.12,0-.21-.09-.21-.21v-18.45c0-.12.09-.22.21-.22h.83c.11,0,.21.1.21.22Z"></path></g></g></g></g></svg>