<svg xmlns="http://www.w3.org/2000/svg" id="Capa_2" data-name="Capa 2" viewBox="0 0 190.46 220.49"><defs><style>      .cls-1 {        fill: #4f0c60;        stroke-width: 0px;      }    </style></defs><g id="Capa_2-2" data-name="Capa 2"><g><path class="cls-1" d="M10.92,163.3c-4.72,0-7.08,2.4-7.08,7.19v20.94c0,4.8,2.36,7.21,7.08,7.21,4.73-.01,7.1-2.41,7.1-7.21v-4.61h-4.94v4.61c0,1.54-.72,2.32-2.17,2.32s-2.14-.77-2.14-2.32v-20.94c0-1.55.71-2.32,2.13-2.32h.04c1.43.01,2.15.78,2.15,2.32v4.6h4.94v-4.6c0-4.79-2.37-7.19-7.1-7.19Z"></path><path class="cls-1" d="M29.22,185.98l-1.61,12.09h4.97l.98-7.26h5.04l.96,7.26h4.99l-1.61-12.14-3.47-22.09h-6.77l-3.49,22.14ZM36.08,171.69l1.88,14.24h-3.77l1.88-14.24Z"></path><polygon class="cls-1" points="71.36 198.07 76.09 198.07 76.09 163.84 71.16 163.84 65.41 187.29 59.6 163.84 54.67 163.84 54.67 198.07 59.45 198.07 59.45 178.86 63.79 198.07 67.14 198.07 71.36 178.86 71.36 198.07"></polygon><polygon class="cls-1" points="87.77 198.07 100.58 198.07 100.58 193.2 92.71 193.2 92.71 183.4 99.48 183.4 99.48 178.51 92.71 178.51 92.71 168.71 100.58 168.71 100.58 163.84 87.77 163.84 87.77 198.07"></polygon><polygon class="cls-1" points="93.78 158.1 91.3 162.51 94.04 162.51 97.65 158.1 93.78 158.1"></polygon><polygon class="cls-1" points="116.33 163.84 111.39 163.84 111.39 198.07 124.2 198.07 124.2 193.2 116.33 193.2 116.33 163.84"></polygon><rect class="cls-1" x="134.4" y="163.84" width="4.94" height="34.23"></rect><path class="cls-1" d="M158.71,163.84h-7.61v34.23h7.29c4.6,0,6.89-2.41,6.89-7.19v-19.84c0-4.79-2.19-7.2-6.58-7.21ZM160.35,190.88c0,1.54-.71,2.32-2.14,2.32h-2.16v-24.49h2.16c1.43,0,2.14.78,2.14,2.34v19.84Z"></path><path class="cls-1" d="M183.36,163.3c-4.72,0-7.09,2.4-7.09,7.19v20.94c0,4.8,2.36,7.21,7.09,7.21,4.73-.01,7.1-2.41,7.1-7.21v-20.94c0-4.79-2.37-7.19-7.1-7.19ZM185.52,191.42c0,1.54-.72,2.32-2.16,2.32s-2.15-.77-2.15-2.32v-20.94c0-1.55.71-2.32,2.13-2.32h.04c1.43.01,2.15.78,2.15,2.32v20.94Z"></path><path class="cls-1" d="M38.11,145.63c.38,0,.66-.03.86-.1.82-.27,1.23-.86,1.23-1.78v-1.34c0-1.25-.57-1.87-1.71-1.88h-1.87v8.91h1.29v-3.82h.21ZM37.9,141.81h.45c.37,0,.56.2.56.61v1.34c0,.28-.11.47-.35.57-.07.02-.19.04-.37.04h-.29v-2.55Z"></path><path class="cls-1" d="M55.94,143.76v-1.34c0-1.25-.57-1.87-1.71-1.88h-1.87v8.91h1.29v-3.9l.17-.02,1.16,3.92h1.41l-1.44-4.15c.67-.25,1.01-.76,1.01-1.55ZM54.66,143.76c0,.28-.12.47-.35.57-.07.02-.19.04-.37.04h-.29v-2.55h.45c.37,0,.56.2.56.61v1.34Z"></path><path class="cls-1" d="M71.91,147.72v-5.45c0-1.25-.62-1.87-1.85-1.87s-1.84.62-1.84,1.87v5.45c0,1.25.61,1.87,1.84,1.87s1.85-.62,1.85-1.87ZM69.51,147.72v-5.45c0-.4.18-.6.55-.6h0c.37,0,.56.2.56.6v5.45c0,.4-.19.61-.56.61s-.56-.2-.56-.61Z"></path><path class="cls-1" d="M87.82,144.36h-1.84v1.27h.56v2.09c0,.4-.18.61-.56.61s-.56-.2-.56-.61v-5.45c0-.4.18-.6.55-.6h0c.37,0,.56.2.56.6v1.2h1.29v-1.2c0-1.25-.62-1.87-1.85-1.87s-1.85.62-1.85,1.87v5.45c0,1.25.62,1.87,1.85,1.87s1.85-.62,1.85-1.87v-3.36Z"></path><path class="cls-1" d="M104.14,149.45l-1.44-4.15c.67-.25,1.01-.76,1.01-1.55v-1.34c0-1.25-.57-1.87-1.71-1.88h-1.87v8.91h1.29v-3.9l.17-.02,1.16,3.92h1.41ZM102.42,143.76c0,.28-.12.47-.35.57-.07.02-.19.04-.37.04h-.29v-2.55h.45c.37,0,.56.2.56.61v1.34Z"></path><path class="cls-1" d="M117.21,147.56h1.31l.25,1.89h1.3l-.42-3.16-.9-5.75h-1.76l-.91,5.76-.42,3.15h1.3l.25-1.89ZM117.87,142.59l.49,3.7h-.98l.49-3.7Z"></path><polygon class="cls-1" points="135.3 149.45 136.4 144.45 136.4 149.45 137.63 149.45 137.63 140.54 136.35 140.54 134.85 146.64 133.34 140.54 132.06 140.54 132.06 149.45 133.3 149.45 133.3 144.45 134.43 149.45 135.3 149.45"></polygon><path class="cls-1" d="M151.17,147.56h1.31l.25,1.89h1.3l-.42-3.16-.9-5.75h-1.76l-.91,5.76-.42,3.15h1.3l.25-1.89ZM151.82,142.59l.49,3.7h-.98l.49-3.7Z"></path><path class="cls-1" d="M33.87,211.43h-1.98v8.91h1.9c1.19,0,1.79-.63,1.79-1.87v-5.16c0-1.25-.57-1.87-1.71-1.88ZM34.29,218.47c0,.4-.18.61-.56.61h-.56v-6.38h.56c.37,0,.56.2.56.61v5.16Z"></path><polygon class="cls-1" points="38.38 220.34 41.71 220.34 41.71 219.07 39.66 219.07 39.66 216.52 41.42 216.52 41.42 215.25 39.66 215.25 39.66 212.7 41.71 212.7 41.71 211.43 38.38 211.43 38.38 220.34"></polygon><path class="cls-1" d="M46.25,211.43h-1.87v8.91h1.29v-3.82h.21c.37,0,.66-.03.86-.1.82-.27,1.23-.86,1.23-1.78v-1.34c0-1.25-.57-1.87-1.71-1.88ZM46.67,214.65c0,.28-.12.47-.35.57-.07.03-.19.04-.37.04h-.29v-2.55h.45c.37,0,.56.2.56.61v1.34Z"></path><path class="cls-1" d="M52.91,211.43h-1.76l-.91,5.76-.42,3.15h1.3l.25-1.89h1.31l.25,1.89h1.3l-.42-3.16-.9-5.75ZM51.53,217.18l.49-3.7.49,3.7h-.98Z"></path><path class="cls-1" d="M60.29,214.65v-1.34c0-1.25-.57-1.87-1.71-1.88h-1.87v8.91h1.29v-3.9l.17-.02,1.16,3.92h1.41l-1.44-4.15c.67-.25,1.01-.76,1.01-1.55ZM59.01,214.65c0,.28-.12.47-.35.57-.07.03-.19.04-.37.04h-.29v-2.55h.45c.37,0,.56.2.56.61v1.34Z"></path><polygon class="cls-1" points="62.7 212.7 63.9 212.7 63.9 220.34 65.18 220.34 65.18 212.7 66.39 212.7 66.39 211.43 62.7 211.43 62.7 212.7"></polygon><path class="cls-1" d="M71.35,211.43h-1.76l-.91,5.76-.42,3.15h1.3l.25-1.89h1.31l.25,1.89h1.3l-.42-3.16-.9-5.75ZM69.97,217.18l.49-3.7.49,3.7h-.98Z"></path><polygon class="cls-1" points="77.95 217.53 76.44 211.43 75.15 211.43 75.15 220.34 76.4 220.34 76.4 215.34 77.53 220.34 78.4 220.34 79.5 215.34 79.5 220.34 80.73 220.34 80.73 211.43 79.44 211.43 77.95 217.53"></polygon><polygon class="cls-1" points="83.62 220.34 86.95 220.34 86.95 219.07 84.9 219.07 84.9 216.52 86.66 216.52 86.66 215.25 84.9 215.25 84.9 212.7 86.95 212.7 86.95 211.43 83.62 211.43 83.62 220.34"></polygon><polygon class="cls-1" points="92.12 216.6 90.9 211.43 89.61 211.43 89.61 220.34 90.85 220.34 90.85 215.34 92.02 220.34 93.31 220.34 93.31 211.43 92.12 211.43 92.12 216.6"></polygon><polygon class="cls-1" points="95.84 212.7 97.04 212.7 97.04 220.34 98.32 220.34 98.32 212.7 99.53 212.7 99.53 211.43 95.84 211.43 95.84 212.7"></polygon><path class="cls-1" d="M103.8,211.29c-1.23,0-1.84.62-1.84,1.87v5.45c0,1.25.62,1.88,1.84,1.88,1.23,0,1.85-.63,1.85-1.88v-5.45c0-1.25-.62-1.87-1.85-1.87ZM104.37,218.61c0,.4-.19.6-.56.6s-.56-.2-.56-.6v-5.45c0-.4.18-.6.55-.6h0c.37,0,.56.2.56.6v5.45Z"></path><path class="cls-1" d="M114.45,211.43h-1.98v8.91h1.9c1.19,0,1.79-.63,1.79-1.87v-5.16c0-1.25-.57-1.87-1.71-1.88ZM114.88,218.47c0,.4-.18.61-.56.61h-.56v-6.38h.56c.37,0,.56.2.56.61v5.16Z"></path><polygon class="cls-1" points="118.96 220.34 122.3 220.34 122.3 219.07 120.25 219.07 120.25 216.52 122.01 216.52 122.01 215.25 120.25 215.25 120.25 212.7 122.3 212.7 122.3 211.43 118.96 211.43 118.96 220.34"></polygon><polygon class="cls-1" points="130.26 211.43 128.98 211.43 128.98 220.34 132.31 220.34 132.31 219.07 130.26 219.07 130.26 211.43"></polygon><path class="cls-1" d="M137.47,211.43h-1.76l-.91,5.76-.42,3.15h1.29l.26-1.89h1.31l.25,1.89h1.3l-.42-3.16-.9-5.75ZM136.09,217.18l.49-3.7.49,3.7h-.98Z"></path><path class="cls-1" d="M147.16,211.43h-1.87v8.91h1.29v-3.82h.21c.38,0,.66-.03.86-.1.82-.27,1.23-.86,1.23-1.78v-1.34c0-1.25-.57-1.87-1.71-1.88ZM147.59,214.65c0,.28-.12.47-.35.57-.06.03-.19.04-.37.04h-.29v-2.55h.45c.37,0,.56.2.56.61v1.34Z"></path><path class="cls-1" d="M153.82,211.43h-1.76l-.91,5.76-.42,3.15h1.3l.25-1.89h1.31l.25,1.89h1.3l-.42-3.16-.9-5.75ZM152.45,217.18l.49-3.7.49,3.7h-.98Z"></path><polygon class="cls-1" points="160.59 212.2 160.59 211.43 157.46 211.43 157.46 212.7 159.14 212.7 157.4 219.57 157.4 220.34 160.67 220.34 160.67 219.07 158.85 219.07 160.59 212.2"></polygon><path class="cls-1" d="M84.44,69.23s1.58-.34,1.94-.99c0,0,.51-1.16-.27-1.94,0,0-1.78-1.42-3.28.23,0,0-.88.72-.53,1.5,0,0,.9,1.66,2.14,1.2Z"></path><path class="cls-1" d="M158.85,120.91l4.37-10.12c.05-.13.17-.22.3-.25l17.64-3.51c2.9-.58,5.03-3.15,5.05-6.11l.06-8.81-.07-8.56c-.03-3.32-2.41-6.19-5.66-6.84l-17.11-3.41c-.09-.02-.17-.08-.2-.17l-6.95-16.09c-.18-.43-.14-.92.12-1.31l9.48-14.38c1.65-2.5,1.29-5.84-.86-7.93l-13.33-12.95c-1.22-1.18-2.82-1.84-4.52-1.84-1.39,0-2.72.44-3.84,1.26l-13.78,10.12c-.51.37-1.1.57-1.73.57-.43,0-.85-.09-1.24-.28l-12.87-6.09c-1.08-.51-1.88-1.47-2.19-2.62l-4.34-16.04C106.28,2.29,103.31.02,99.93.01h-13.48c-3.97-.01-7.37,2.69-8.28,6.55l-3.62,15.46c-.19.84-.79,1.54-1.58,1.88l-14.81,6.28c-.32.14-.65.2-1,.2-.51,0-1.01-.16-1.44-.44l-13.71-9.32c-1.27-.86-2.75-1.31-4.28-1.31-2.09,0-4.11.87-5.54,2.39l-9.99,10.57c-2.63,2.79-3.13,7.05-1.22,10.38l7.3,12.65c.45.78.51,1.74.15,2.56l-6.53,15.09c-.4.92-1.27,1.58-2.27,1.72l-13.93,1.92C2.45,77.04,0,79.86,0,83.15l.02,17.46c0,3.34,2.5,6.2,5.81,6.66l15.2,2.1c.14.02.26.11.31.24l6.01,13.39c1.32,2.94,4.26,4.84,7.48,4.84.27,0,.54-.01.81-.04l40.71-4.01c23.35-2.03,50.55-.17,50.55-.17l20.65,3.44c.57.1,1.14.14,1.72.14,4.17,0,7.92-2.47,9.58-6.3ZM149.5,124.32h-.03s-.13,0-.24,0h-.04c-.11,0-.23,0-.36,0-.04,0-.08,0-.12,0,0,0,0,0,0,0,0,0,0,0,0,0-.03,0-.05,0-.07,0-.04,0-.08,0-.12-.01h0s-.03,0-.05,0c0,0-.01,0-.02,0,0,0-.02,0-.03,0-.02,0-.03,0-.05,0,0,0,.01,0,.02,0-.01,0-.03,0-.04,0-.03,0-.06,0-.1-.01-.06,0-.12-.02-.2-.03-.07,0-.16-.03-.25-.04-.09-.01-.19-.03-.3-.05-3.14-.49-12.91-2.14-17.08-2.85.02,0,.04,0,.05,0-.07-.01-.15-.03-.22-.04-.07-.01-.14-.03-.21-.04-.08-.01-.16-.03-.23-.04-.13-.02-.25-.04-.36-.06h-.04s0,0,0,0c0,0,0,0,0,0-.02,0-.03,0-.05,0,0,0,0,0,0,0-.03,0-.06,0-.09-.01,0,0,0,0,0,0-.03,0-.06,0-.08-.01h0s-.05,0-.08-.02c-.03,0-.06,0-.08-.01-.05,0-.1-.02-.14-.02h-.06s0-.01,0-.01h-.05s-.04-.01-.05-.02h0s-.02,0-.03,0h0s0,0,0,0h-.01s-.02,0-.03,0h-.02s0,0,0,0c-.04,0-.06,0-.06,0-.04,0-.08-.01-.13-.02l-1.01-.17c-8.01-1.33-14.76-6.69-17.9-14.19-2.47-5.91-4.24-10.84-5.4-13.94-.38-1.01-1.42-1.35-2.5-1.27-7.8-.62-9.53-1.55-11.83-2.21-.3-.09-.62-.15-.94-.17-1.55-.1-7.38-.82-9.77-5.79-.08-.17.15-.3.26-.17,1.39,1.7,4.76,5.02,9.94,5,.5,0,1,.07,1.48.22,1.78.58,6.66,1.93,12.35,1.49.02,0,.04,0,.06-.01.14-.05.83-.27,1.13-.42.12-.06.25-.09.38-.09.92-.03,4.31-.42,5.6-4.83.08-.28.28-.5.54-.62.77-.34,2.28-1.57,1.09-5.98,0,0,0-.02,0-.03h0s.26-5.42-2.46-7.67c0,0-3.49-3.14-4.35-4.65-.06-.11-.22-.56-.31-.85-.06-.18-.13-.36-.22-.52-.45-.85-1.84-3.27-3.43-4.74,0,0-.12-.23.13-.15,0,0,2.67,2.42,3.71,5.04,0,0,.34.85.86,1.69.36.57,1.19.59,1.59.06.41-.55.79-1.09.83-1.14,0,0,0,0,0,0,.47-.56,1-.66,1.37-.65.71.02,1.21-.7.92-1.34,0,0,0-.02-.01-.03,0,0-1.37-2.99-4.19-4.28-.56-.26-.74-.96-.37-1.44,2.05-2.65,7.21-9.86,7.13-14.96,0,0,.08-7.51-3.55-10.97,0,0-1.99-1.99-2.69.64-.02.06-.03.14-.03.21.02.7.05,4.94-1.55,8.16t0,0c-.04.09-1.85,4.45-3.62,5.91,0,0-3.16,2.78-5.17,6.78,0,0-.42.75-.8.52,0,0-6.38-2.51-13.29-.5,0,0-2.74.84-2.48-.91,0-.05,0-.12,0-.17-.12-.88-1.02-8.71,4.26-14.67,0,0,5.05-5.62-2.14-4.97,0,0-.02,0-.03,0-.31.06-6.17,1.32-9.61,5.06,0,0-4.62,4.79-2,14.47,0,0,1.11,3.05.65,6.78,0,0,0,.02,0,.03-.06.23-.72,3.15.74,5.84.11.2.15.42.09.64-.48,1.99-2.71,12.58.47,24.76,2.37,8.78,5.08,21.65,6.3,27.59.35,1.73-.87,3.38-2.62,3.55l-39.11,3.85-1.61.16c-2.12.21-4.14-.96-5.01-2.9l-6.01-13.39c-.51-1.15-1.59-1.95-2.83-2.12l-15.2-2.1c-1.73-.24-3.01-1.71-3.01-3.46l-.02-17.46c0-1.69,1.24-3.12,2.91-3.35l13.93-1.92c2.13-.29,3.95-1.67,4.8-3.65l6.52-15.09c.77-1.77.65-3.8-.31-5.46l-7.29-12.65c-1.22-2.11-.9-4.76.77-6.53l9.99-10.57c1.47-1.56,3.86-1.82,5.64-.61l13.71,9.31c1.63,1.11,3.71,1.31,5.52.54l14.81-6.28c1.75-.74,3.04-2.27,3.47-4.13l3.62-15.46c.56-2.38,2.68-4.07,5.13-4.06h13.47c1.92.01,3.6,1.3,4.1,3.16l4.34,16.04c.56,2.07,2,3.78,3.93,4.7l12.87,6.08c2.04.97,4.45.74,6.28-.6l13.78-10.12c1.28-.94,3.05-.82,4.19.29l13.33,12.95c1.04,1.01,1.21,2.62.42,3.82l-9.48,14.38c-.86,1.3-1,2.95-.39,4.38l6.95,16.09c.46,1.06,1.41,1.83,2.55,2.06l17.1,3.41c1.76.35,3.04,1.89,3.06,3.69l.07,8.5-.06,8.81c0,1.44-1.03,2.67-2.44,2.96l-17.64,3.52c-1.18.23-2.17,1.03-2.65,2.14l-4.37,10.12c-1.11,2.58-3.59,4.23-6.31,4.34ZM77.87,49.53s-1.3,4.54-1.57,5.14c0,0-.62,1.75-1.09,1.83,0,0-.43.26-1.27-.85,0,0-2.22-2.79-2.66-6.36,0-.03,0-.06-.02-.09-.12-.51-1.23-5.63,2.1-10.28.02-.03.04-.06.06-.08.39-.43,3.86-4.16,7.06-3.95h0c.13,0,3.84-.13,1.63,2.15,0,0-2.03,2.29-3.08,6.87,0,.04-.01.08-.02.12-.04.43-.34,3.09-1.15,5.5ZM80.65,67.18c-.03-1.93,3.1-2.52,3.1-2.52,1.97-.7,3.52.56,3.91.92.06.06.11.12.16.18.45.6,1.27.95,1.78,1.13.11.04.11.2,0,.23-.13.04-.23.07-.23.07-1,.17-1.44,1.03-1.55,1.27-.02.05-.04.09-.07.14-1.27,2.21-3.97,2.05-4.59,1.98-.08,0-.15-.02-.23-.05-2.37-.72-2.28-3.34-2.28-3.34ZM105.37,83.58c1.16-.41,1.76-1.17,2.05-1.76.1-.2.41-.12.4.1,0,.16-.03.3-.06.43-.1.43.04.96.46,1.11,1.02.38,1.77.34,1.81.37.23.12.07.48-.17.38-.11-.04-1.01-.11-1.99-.43-.36-.12-.73-.16-1.05.05-2.33,1.53-5.44.33-6.8-.33-.11-.05-.05-.21.07-.18,4.44,1.05,5.26.27,5.28.26ZM102.11,73.12c.29-.1.49-.19.58-.23.04-.02.07-.03.11-.05,1.34-.44,1.88.34,2.05.69.08.15.2.39.28.53.72,1.2,1.52,1.98,1.52,1.98.54.75,1.07-.07,1.07-.07.37-.58.58-1.08.71-1.45.06-.18.1-.37.14-.56l.04-.23c.09-1,.54-1.17.54-1.17.85-.53,1.02.77,1.02.77.06.74-1.06,1.31-1.06,1.31-.81.62-1.08,1.6-1.08,1.6-.26.8-.26,1.47-.4,1.97-.07.24-.2.03-.2.03-.26-.87-.85-1.62-1.65-2.06-.61-.34-1.18-.57-1.18-.57-1.02-.39-1.48-.47-1.48-.47-.32-.05-.63-.11-.93-.19-.93-.24-.98-1.53-.07-1.84ZM101.04,72.08s-1.19.47-1.27,1.39c-.01.13.02.26.07.38.14.29.39.95-.35.71-.44-.15-.55-1.11-.58-1.43,0-.1-.03-.19-.06-.29-.04-.11-.1-.28-.2-.49,0,0-.25-.68.49-.33.41.19.8-.16.8-.16.8-.55,1.25-.25,1.25-.25,0,0,.38.25-.15.48ZM107.77,34.72c-.07-.43-.37-2.45.64-2,.13.06.24.15.33.27.6.74,3.21,4.25,3.05,8.57,0,0,.05,4.06-2.61,8.03,0,0-2.9,4.54-5.09,7.11,0,0-.14.36-.55-.19,0,0-.88-1.24-2.24-1.66,0,0-.23-.08-.02-.25,0,0,.02-.02.02-.03l.21-.34s2.13-3.37,2.98-7.72c0-.03.01-.06.02-.09.11-.35.86-2.72,1.81-4.75,0,0,1.38-3.35,1.44-6.77,0-.06,0-.11-.01-.17Z"></path><path class="cls-1" d="M108.68,65.33s-.01.02-.02.02c0,0-.34.5-.71.99-.33.45-.23,1.09.22,1.42.11.08.23.17.34.25.46.36,1.13.23,1.43-.28.25-.43.46-1.02.43-1.78-.03-.89-1.12-1.3-1.69-.63Z"></path><path class="cls-1" d="M66.98,77.2c-16.14,7.18-27.41,23.34-27.42,42.14l31.86-3.14c1.46-.14,2.48-1.52,2.19-2.97-1.02-4.97-3.28-15.72-5.26-23.06-1.26-4.83-1.5-9.36-1.36-12.97Z"></path><path class="cls-1" d="M115.39,77.21c.82,2.05.67,4.23.69,4.41,0,0,0,.02,0,.02.99,3.67-.27,4.7-.91,4.98-.22.09-.38.28-.45.51-.92,3.15-3.13,3.85-4.22,3.99-.36.05-.67.28-.83.6-.24.49-.44,1.27-.07,2.28.96,2.61,2.47,6.75,4.54,11.72,2.58,6.16,8.33,9.11,14.9,10.23,0,0,10.24,2.21,17.36,2.86-.17-20.2-12.8-35.58-31.01-41.62Z"></path><path class="cls-1" d="M129.62,121h0,.03s-.02,0-.03,0Z"></path><polygon class="cls-1" points="129.59 121 129.61 121 129.6 121 129.59 121"></polygon><polygon class="cls-1" points="129.61 121 129.61 121 129.61 121 129.61 121"></polygon><path class="cls-1" d="M131.5,121.48c.19.03.4.07.6.1.06,0,.12.02.18.03-.11-.02-.22-.04-.33-.06-.16-.03-.31-.05-.46-.07Z"></path><path class="cls-1" d="M132.52,121.65c.17.03.35.06.53.09.2.03.4.07.61.1l-.55-.09c-.2-.04-.4-.07-.59-.1Z"></path></g></g></svg>