<svg xmlns="http://www.w3.org/2000/svg" id="Capa_2" data-name="Capa 2" viewBox="0 0 148.74 202.79"><defs><style>      .cls-1 {        fill: #4f0c60;        stroke-width: 0px;      }    </style></defs><g id="Capa_2-2" data-name="Capa 2"><g><path class="cls-1" d="M97.21,28.96s-1.43.94-3.54.4c.24.1,2.47,1.05,2.93.81,0,0,.66-.17.59.88,0,0-.33,4.89-.33,6.81,0,0,.14,3.47-2.21,3.19-2.36-.28-3.41-.02-3.41-.02,0,0,4.7.91,4.7,1.56s-1.3.55-1.3.55c0,0,1.19.73,1.19,1.42s-2.37,11.23-2.45,17.12c0,0-.16,2.06-.36,2.76,0,0-.66,2.14-1.73,0l-1.17-1.79s-3.87-4.2-4.08-4.96c0,0,.73-2.66.81-4.03,0,0-.97,1.23-1.41,1.08-.44-.14-.97-2.13-.97-2.13,0,0-.4-3.45-.95-4.3,0,0,1.79-5.08,2-6.63,0,0,1.78-5.78,1.98-9.16,0,0,.46-.43.5-.73,0,0,0-.83-.42-.89l.69-8.8s1.21-4.7,4.43-4.17c0,0,4.48.14,4.52,4.98,0,0,.6,5.89,0,6.05M83.18,54.2s-.53,2.28-1.65,0c0,0-3.87-5.39-8.23-6.62,0,0-.85-.36-1.54.09,0,0-1.73-.4,0-2.07,0,0,6.25-4.49,9.69-.42,0,0,2.62,3.37,1.73,9.01M78.14,54.78l-2.1,2.6c-1.67,2.34-3.7.87-3.7.87-1.34-1.11-3.47-4.21-3.47-4.21.02-3.37,4.93-5.04,4.93-5.04,1.03.31,3.91,3.49,3.91,3.49,1.09,1.19.44,2.29.44,2.29M68.46,67.9c.76-3.2,3.91-1.26,3.91-1.26,2.38,2.94,1.11,5.67,1.11,5.67-1.07,2.4-4.41.54-4.41.54-1.11-2.67-.6-4.95-.6-4.95M120.6,74.1V18.53c0-10.23-8.3-18.53-18.53-18.53H27.97v148.21h24.36s-.98-.47-.12-10.83c0,0,.76-12.98.44-19.66,0,0,.56-8.71.32-18.87,0,0,2.63-.43,3.26-2.51-.19.05-2.66.72-4.49-3.09,0,0-2.79-3.35-3.68-9.97,0,0-.51-3.35,0-8.55,0,0,1.13-12.46,1.05-13.63,0,0,.56-1.53,2.29-2.38,0,0-1.48.08-2.86,1.25,0,0-.55-.32-.52-1.53,0,0-.57-6.97-2.42-14.48,0,0-.82-1.53-1.28-5.46,0,0-.48-2.27-1.18-4.75,0,0-.45-3.36-.33-5.29,0,0-.43-2.39,1.75-3.6,0,0,3.15-2.66,4.27,0,0,0,1.15,1.28,1.06,5.87,0,0,1.09,3.84,1.7,4.69l.98,1.65s-1.05.83-1.71.85c0,0,1.25.35,1.69.23,0,0,.48,1.98,1.23,4.2,0,0,1.13,1.44,1.09,2.77,0,0,.15,1.15-1.13,1.33l-4.23,1.28,5.34-.52s.76,1.12.09,2l.43.15s1.32,3.73-.4,5.24c0,0-1.29,1.14-2.74,1.59,1.02-.21,3.19-.46,4.7.71,0,0,1.99,1.57,1.63,4.56l-.12,1.51s-.16.97.94,1.37c0,0,2.6.9,1.36,2.52,0,0-1.44.71-3.49.69,0,0,4.01.27,4.66,3.07,0,0,.24,1.29.16,2.18,0,0,.16,1.07-2.28,1.69,0,0,.16.42,1.53.42,0,0,.16,2.08,1.61,2.7,0,0-1.15,1.98-.87,4.3,0,0,.55-1.45,1.21-2.08,0,0,.71-.62,1.6.99,0,0,.16.54,1.13,1.35v1.23s.86-.12,1.03.06c0,0,.36,4.04,1.41,5.17,0,0,.99-8.23,2.8-9.97,0,0-.3,1.36,0,2.61,0,0,1.68-3.95,9.64-6.48,0,0-2.78-4.06-3.28-6.6,0,0-.46-.85,1.64-.57,0,0,.82-.24-1.21-.6,0,0-3.4.05-6.57-3.31,0,0-5.24-4.2-4.45-10.97,0,0-2.24,1.72-.1,8.29,0,0,.22,1.15.84,1.92,0,0,1.03,2.33.15,4.28,0,0-.71.81-.12,2.5,0,0,1.09,2.97,0,3.45-1.09.48-2.54-4.12-2.54-4.12,0,0-1.13-2.78-.81-7.95,0,0-.75,2-2.16-.58,0,0-2.33-3.63-2.37-4.95,0,0-.2,1.48-.85,1.25,0,0-1.56-.66-1.48-2.16,0,0,.76-10.55,7.42-10.43,0,0,3.32-.76,3.84,4.39,0,0-.91,1.08-1.09,2.57,0,0,.94-1.51,2.24-1.78,0,0,.45.52.36.64-.09.12-1.3.63-1.73,1.91,0,0-.98,1.9.3,3.8,0,0,1.37,2.22,4.09,4.48,0,0,1.27,1.51,3.57-.12,0,0,3.49-2.53,3.9-3.25l1.19-.73s.77-.65,2.36,1.09c0,0,1.98,1.84,2.34,2.18.36.35-.77,1.45-.77,1.45l-2.56,3.75,4.28-3.81s1.15,1.06,1.13,2.24l-1.92,1.49,2.78-.66s1.05.72,1.9,2.48c.85,1.75,2.83,3.36,2.83,3.36,0,0,1.69,2.98,1.48,8.48,0,0-.27,3.63-2.31,7.75,0,0-2.11,4.78-3.5,5.66-1.39.87-2.63-.65-2.63-.65,0,0-4.28-3.41-5.04-4.7.27.6,1.87,4,5.8,7.09,0,0,1.33,1.4-2.02,3.9,0,0-2.04.97-2.16,2-.12,1.02-.97,1.87-2.72,1.09-1.69-.77-4.53-2.72-4.71-2.84.12.16,1.99,2.61,5.2,4.59,0,0,1.81-.18,1.69,2.85,0,0-.48,9.09-.61,12.8,0,0-.43,16.15.19,23.31,0,0,.6,5.93,0,7.17h37.92v-37.06c0-10.23-8.3-18.53-18.53-18.53,10.23,0,18.53-8.3,18.53-18.53"></path><path class="cls-1" d="M7.79,165.38c0,.86-.32,1.4-.96,1.65-.17.07-.53.1-1.08.1h-.61v-8.04h1.15c1.01,0,1.5.59,1.5,1.76v4.53ZM12.92,165.38v-4.53c0-4.45-2.06-6.67-6.19-6.68H0v30.83h5.13v-10h1.15c1.01,0,1.5.58,1.5,1.76v8.25h4.07s1.06,0,1.06,0v-8.26c0-3.12-1.03-5.15-3.07-6.07,2.04-.86,3.07-2.63,3.07-5.3"></path><polygon class="cls-1" points="16.55 157.37 27.37 157.37 27.37 161.77 21.15 161.77 21.15 168.98 26.51 168.98 26.51 173.4 21.15 173.4 21.15 180.61 27.37 180.61 27.37 185.01 16.55 185.01 16.55 157.37"></polygon><path class="cls-1" d="M30,162.91c0-3.98,1.98-5.96,5.95-5.96s5.96,1.99,5.96,5.96v3.92h-4.6v-3.92c0-1.03-.45-1.55-1.35-1.56h-.03c-.89,0-1.34.52-1.34,1.56v2.46c0,1.12,1.18,2.53,3.53,4.22,2.52,1.79,3.78,3.95,3.78,6.46v3.42c0,3.99-1.98,5.98-5.95,5.98-3.98,0-5.96-2-5.96-5.98v-3.92h4.6v3.92c0,1.04.46,1.56,1.37,1.56s1.35-.52,1.35-1.56v-3.09c0-1.22-1.18-2.68-3.53-4.38-2.52-1.79-3.78-3.98-3.78-6.56v-2.54Z"></path><rect class="cls-1" x="45.3" y="157.37" width="4.6" height="27.64"></rect><path class="cls-1" d="M53.28,162.91c0-3.98,1.98-5.96,5.95-5.96s5.96,1.99,5.96,5.96v3.92h-4.6v-3.92c0-1.03-.45-1.55-1.35-1.56h-.03c-.89,0-1.34.52-1.34,1.56v2.46c0,1.12,1.18,2.53,3.53,4.22,2.52,1.79,3.78,3.95,3.78,6.46v3.42c0,3.99-1.98,5.98-5.95,5.98-3.98,0-5.96-2-5.96-5.98v-3.92h4.6v3.92c0,1.04.46,1.56,1.37,1.56s1.35-.52,1.35-1.56v-3.09c0-1.22-1.18-2.68-3.53-4.38-2.52-1.79-3.78-3.98-3.78-6.56v-2.54Z"></path><polygon class="cls-1" points="79.31 157.37 79.31 161.77 75.66 161.77 75.66 185.01 71.06 185.01 71.06 161.77 67.4 161.77 67.4 157.37 79.31 157.37"></polygon><polygon class="cls-1" points="81.8 157.37 92.62 157.37 92.62 161.77 86.4 161.77 86.4 168.98 91.75 168.98 91.75 173.4 86.4 173.4 86.4 180.61 92.62 180.61 92.62 185.01 81.8 185.01 81.8 157.37"></polygon><polygon class="cls-1" points="95.52 157.37 100.06 157.37 103.13 170.98 103.13 157.37 107.44 157.37 107.44 185.01 102.89 185.01 99.97 171.77 99.97 185.01 95.52 185.01 95.52 157.37"></polygon><path class="cls-1" d="M122.67,179.47c0,3.98-1.99,5.97-5.96,5.98-3.97,0-5.95-1.99-5.95-5.98v-16.57c0-3.98,1.98-5.96,5.95-5.96s5.96,1.99,5.96,5.96v3.92h-4.6v-3.92c0-1.03-.45-1.55-1.35-1.56h-.03c-.89,0-1.34.52-1.34,1.56v16.57c0,1.04.45,1.56,1.35,1.56s1.37-.52,1.37-1.56v-3.92h4.6v3.92Z"></path><rect class="cls-1" x="125.91" y="157.37" width="4.6" height="27.64"></rect><path class="cls-1" d="M142.06,173.67l-1.23-9.33-1.23,9.33h2.46ZM147.28,173.95l1.46,11.06h-5.17l-.85-6.41h-3.77l-.86,6.41h-5.16l1.46-11.01,3.13-19.82h6.65l3.11,19.78Z"></path><path class="cls-1" d="M30,194.31v3.3h2.58c1.42,0,2.17-.58,2.17-1.67s-.76-1.63-2.17-1.63h-2.58ZM32.59,193.3c2.11,0,3.27.95,3.27,2.64s-1.26,2.65-3.26,2.65h-.15l3.36,4.07h-1.34l-3.3-4.07h-1.18v4.07h-1.08v-9.36h3.67Z"></path><path class="cls-1" d="M38.12,199.49c0,1.37,1,2.36,2.31,2.36s2.31-.99,2.31-2.36-1-2.35-2.31-2.35-2.31.99-2.31,2.35M43.77,199.49c0,1.88-1.43,3.3-3.34,3.3s-3.33-1.42-3.33-3.3,1.42-3.29,3.33-3.29,3.34,1.42,3.34,3.29"></path><path class="cls-1" d="M50.76,197.2l-.64.67c-.48-.46-1.04-.74-1.73-.74-1.27,0-2.23.99-2.23,2.35s.96,2.36,2.23,2.36c.69,0,1.3-.31,1.75-.74l.62.68c-.57.65-1.41,1-2.35,1-1.95,0-3.28-1.42-3.28-3.3s1.33-3.29,3.28-3.29c.94,0,1.78.35,2.35,1"></path><polygon class="cls-1" points="53.46 198.9 54.38 198.9 56.82 196.33 58.07 196.33 55.19 199.31 58.11 202.66 56.85 202.66 54.37 199.81 53.46 199.81 53.46 202.66 52.46 202.66 52.46 193.03 53.46 193.03 53.46 198.9"></polygon><path class="cls-1" d="M64.26,198.42v3.24h2.67c1.4,0,2.33-.37,2.33-1.62s-.92-1.61-2.33-1.61h-2.67ZM64.26,194.31v3.1h2.51c1.29,0,2.29-.31,2.29-1.56s-1-1.54-2.29-1.54h-2.51ZM66.81,193.3c1.97,0,3.38.69,3.38,2.47,0,1.06-.57,1.78-1.41,2.07.94.31,1.61,1.06,1.61,2.22,0,1.82-1.34,2.6-3.41,2.6h-3.8v-9.36h3.62Z"></path><path class="cls-1" d="M72.9,199.49c0,1.37,1,2.36,2.31,2.36s2.31-.99,2.31-2.36-1-2.35-2.31-2.35-2.31.99-2.31,2.35M78.55,199.49c0,1.88-1.43,3.3-3.34,3.3s-3.33-1.42-3.33-3.3,1.42-3.29,3.33-3.29,3.34,1.42,3.34,3.29"></path><rect class="cls-1" x="80.4" y="193.03" width="1" height="9.63"></rect><path class="cls-1" d="M84.75,202.66h-1v-6.33h1v6.33ZM84.95,194.08c0,.4-.31.7-.71.7s-.7-.3-.7-.7.3-.71.7-.71.71.31.71.71"></path><polygon class="cls-1" points="89.99 202.68 88.82 202.68 86.12 196.33 87.2 196.33 89.41 201.66 91.62 196.33 92.68 196.33 89.99 202.68"></polygon><path class="cls-1" d="M95.05,202.66h-1v-6.33h1v6.33ZM95.26,194.08c0,.4-.31.7-.71.7s-.7-.3-.7-.7.3-.71.7-.71.71.31.71.71"></path><path class="cls-1" d="M97.92,199.49c0,1.31.92,2.36,2.27,2.36s2.25-1.02,2.25-2.36-.94-2.35-2.25-2.35-2.27,1.05-2.27,2.35M103.38,202.66h-1v-.94c-.5.65-1.27,1.07-2.31,1.07-1.78,0-3.16-1.39-3.16-3.3s1.38-3.29,3.16-3.29c1.04,0,1.81.43,2.31,1.07v-.94h1v6.33Z"></path><path class="cls-1" d="M111.47,198.74v3.93h-1v-3.6c0-1.2-.67-1.91-1.83-1.91-1.06,0-1.94.73-1.94,1.94v3.57h-1v-6.33h.99v.9c.51-.76,1.36-1.03,2.13-1.03,1.56,0,2.64,1,2.64,2.53"></path><path class="cls-1" d="M114.27,199.49c0,1.37,1,2.36,2.31,2.36s2.31-.99,2.31-2.36-1-2.35-2.31-2.35-2.31.99-2.31,2.35M119.92,199.49c0,1.88-1.43,3.3-3.34,3.3s-3.33-1.42-3.33-3.3,1.42-3.29,3.33-3.29,3.34,1.42,3.34,3.29"></path></g></g></svg>